<?xml version="1.0" encoding="UTF-8"?>
<!DOCTYPE svg PUBLIC "-//W3C//DTD SVG 1.1//EN" "http://www.w3.org/Graphics/SVG/1.1/DTD/svg11.dtd">
<!-- Creator: CorelDRAW 2021.5 -->
<svg xmlns="http://www.w3.org/2000/svg" xml:space="preserve" width="1380px" height="267px" version="1.1" style="shape-rendering:geometricPrecision; text-rendering:geometricPrecision; image-rendering:optimizeQuality; fill-rule:evenodd; clip-rule:evenodd"
viewBox="0 0 2186.12 423.32"
 xmlns:xlink="http://www.w3.org/1999/xlink"
 xmlns:xodm="http://www.corel.com/coreldraw/odm/2003">
 <defs>
  <style type="text/css">
   <![CDATA[
    .str0 {stroke:#247ABF;stroke-width:17.63;stroke-miterlimit:22.9256}
    .fil0 {fill:none}
    .fil1 {fill:#58595B;fill-rule:nonzero}
   ]]>
  </style>
 </defs>
 <g id="Слой_x0020_1">
  <metadata id="CorelCorpID_0Corel-Layer"/>
  <path class="fil0 str0" d="M345.88 362.84c-35.86,32.03 -83.06,51.67 -134.22,51.67 -51.16,0 -95.08,-18.74 -130.57,-49.22 43.75,-8.93 92.05,-13.5 138.85,-13.5 46.8,0 86.04,3.8 125.94,11.05zm-134.22 -354.02c112.03,0 202.85,90.81 202.85,202.84 0,112.03 -90.82,202.85 -202.85,202.85 -112.03,0 -202.84,-90.82 -202.84,-202.85 0,-112.03 90.81,-202.84 202.84,-202.84zm113.85 34.94c-68.27,46.38 -159.43,46.38 -227.7,0 32.46,-22.05 71.65,-34.94 113.85,-34.94 42.2,0 81.39,12.89 113.85,34.94zm86.45 166.27l-0.01 1.18 -147.51 0c-28.68,0 -52.13,23.46 -52.13,52.14l0 88.09 -1.78 -0.01 0 -88.08c0,-28.68 -23.46,-52.14 -52.14,-52.14l-149.28 0 -0.01 -1.18 149.29 0c28.68,0 52.14,-23.46 52.14,-52.14l0 -79.34 1.78 0 0 79.34c0,28.67 23.45,52.14 52.13,52.14l147.52 0z"/>
  <path class="fil1" d="M525.92 149.88l0 -55.45 9.75 0 0 27.88 26.37 -27.88 11.96 0 -23.05 23.85 24.08 31.6 -11.8 0 -18.93 -24.95 -8.63 8.87 0 16.08 -9.75 0zm57.43 0l0 -55.45 9.66 0 0 19.96 12.75 0c6.34,0 11.4,1.52 15.17,4.56 3.78,3.04 5.67,7.3 5.67,12.79 0,5.6 -1.88,10.02 -5.63,13.27 -3.75,3.25 -8.84,4.87 -15.28,4.87l-22.34 0zm9.66 -8.71l12.52 0c3.64,0 6.45,-0.81 8.43,-2.42 1.98,-1.61 2.97,-3.97 2.97,-7.09 0,-2.85 -1,-5.03 -3.01,-6.53 -2,-1.51 -4.85,-2.26 -8.55,-2.26l-12.36 0 0 18.3zm40.16 8.71l0 -55.45 9.66 0 0 55.45 -9.66 0zm23.92 0l0 -55.45 21.86 0c6.45,0 11.57,1.69 15.37,5.07 3.8,3.38 5.7,7.93 5.7,13.63 0,5.96 -2.1,10.61 -6.29,13.94 -4.2,3.32 -9.5,4.99 -15.89,4.99l-11.01 0 0 17.82 -9.74 0zm9.74 -26.61l11.33 0c3.64,0 6.55,-0.93 8.71,-2.78 2.17,-1.84 3.25,-4.27 3.25,-7.28 0,-3.17 -1.07,-5.61 -3.21,-7.33 -2.14,-1.72 -5.05,-2.58 -8.75,-2.58l-11.33 0 0 19.97zm43.17 26.61l0 -55.45 37.31 0 0 8.8 -27.64 0 0 46.65 -9.67 0zm47.05 0l0 -55.45 9.67 0 0 19.96 12.75 0c6.33,0 11.39,1.52 15.17,4.56 3.77,3.04 5.66,7.3 5.66,12.79 0,5.6 -1.88,10.02 -5.63,13.27 -3.75,3.25 -8.84,4.87 -15.28,4.87l-22.34 0zm9.67 -8.71l12.51 0c3.64,0 6.45,-0.81 8.44,-2.42 1.98,-1.61 2.96,-3.97 2.96,-7.09 0,-2.85 -1,-5.03 -3,-6.53 -2.01,-1.51 -4.86,-2.26 -8.56,-2.26l-12.35 0 0 18.3zm40.15 8.71l0 -55.45 9.67 0 0 55.45 -9.67 0zm42.77 -56.4c5.71,0 10.38,1.4 14.02,4.2 3.65,2.8 5.47,6.36 5.47,10.7 0,5.96 -3.14,10.27 -9.42,12.91 3.32,1 5.96,2.61 7.92,4.83 1.95,2.21 2.93,5.04 2.93,8.47 0,4.7 -1.88,8.58 -5.63,11.65 -3.75,3.06 -8.66,4.59 -14.73,4.59 -5.23,0 -9.73,-0.75 -13.51,-2.26 -3.77,-1.5 -7.27,-3.79 -10.49,-6.85l5.31 -6.73c5.17,4.91 11.32,7.36 18.45,7.36 3.06,0 5.64,-0.75 7.72,-2.25 2.09,-1.51 3.13,-3.53 3.13,-6.06 0,-2.75 -1.16,-4.78 -3.48,-6.1 -2.32,-1.32 -5.39,-1.98 -9.19,-1.98l-6.26 0 0 -8.08 6.18 0c3.59,0 6.39,-0.7 8.4,-2.1 2,-1.4 3.01,-3.39 3.01,-5.98 0,-2.32 -0.97,-4.2 -2.9,-5.62 -1.92,-1.43 -4.44,-2.14 -7.56,-2.14 -6.07,0 -11.25,2.06 -15.52,6.18l-5.23 -6.34c5.86,-5.6 12.99,-8.4 21.38,-8.4zm56.08 56.4l0 -55.45 21.87 0c6.44,0 11.56,1.69 15.36,5.07 3.8,3.38 5.7,7.93 5.7,13.63 0,5.96 -2.09,10.61 -6.29,13.94 -4.2,3.32 -9.49,4.99 -15.88,4.99l-11.01 0 0 17.82 -9.75 0zm9.75 -26.61l11.32 0c3.65,0 6.55,-0.93 8.72,-2.78 2.16,-1.84 3.24,-4.27 3.24,-7.28 0,-3.17 -1.07,-5.61 -3.21,-7.33 -2.13,-1.72 -5.05,-2.58 -8.75,-2.58l-11.32 0 0 19.97zm43.16 26.61l0 -55.45 41.11 0 0 8.72 -31.36 0 0 14.41 27.8 0 0 8.72 -27.8 0 0 14.89 31.76 0 0 8.71 -41.51 0zm78.81 0.95c-8.02,0 -14.73,-2.76 -20.11,-8.28 -5.39,-5.52 -8.08,-12.31 -8.08,-20.39 0,-8.03 2.69,-14.82 8.08,-20.36 5.38,-5.54 12.22,-8.32 20.51,-8.32 4.81,0 8.88,0.74 12.24,2.22 3.35,1.48 6.51,3.62 9.46,6.42l-6.25 7.21c-4.97,-4.6 -10.14,-6.9 -15.53,-6.9 -5.28,0 -9.65,1.91 -13.11,5.71 -3.46,3.8 -5.18,8.47 -5.18,14.02 0,5.49 1.74,10.15 5.22,13.98 3.49,3.82 7.84,5.74 13.07,5.74 3.17,0 5.97,-0.59 8.4,-1.78 2.43,-1.19 4.94,-3 7.52,-5.43l6.26 6.34c-3.12,3.27 -6.42,5.73 -9.9,7.37 -3.49,1.63 -7.68,2.45 -12.6,2.45zm32.72 -0.95l0 -55.45 45.23 0 0 55.45 -9.75 0 0 -46.65 -25.74 0 0 46.65 -9.74 0zm69.07 0.87c-3.81,0 -7.42,-0.92 -10.85,-2.77l3.72 -7.29c2.06,1.16 4.33,1.74 6.81,1.74 3.33,0 6.23,-2 8.71,-6.02l-23.13 -41.98 10.93 0 17.27 32.24 15.21 -32.24 10.53 0 -21.62 43.33c-4.28,8.66 -10.14,12.99 -17.58,12.99zm48.39 -0.87l0 -55.45 41.35 0 0 8.8 -31.68 0 0 12.75 15.44 0c6.18,0 11.08,1.48 14.69,4.43 3.62,2.96 5.43,7.08 5.43,12.36 0,5.49 -1.82,9.72 -5.46,12.67 -3.65,2.96 -8.69,4.44 -15.13,4.44l-24.64 0zm9.67 -8.71l12.83 0c4.43,0 7.71,-0.65 9.82,-1.94 2.11,-1.3 3.17,-3.58 3.17,-6.86 0,-5.43 -3.75,-8.15 -11.25,-8.15l-14.57 0 0 16.95zm46.57 9.34c-2.27,0 -4.52,-0.29 -6.73,-0.87l0.95 -8c0.95,0.32 2,0.48 3.17,0.48 1.26,0 2.36,-0.2 3.28,-0.6 0.93,-0.39 1.9,-1.33 2.93,-2.81 1.03,-1.48 1.85,-3.5 2.46,-6.06 0.61,-2.56 1.12,-6.14 1.54,-10.73 0.43,-4.6 0.64,-10.11 0.64,-16.56l0 -10.93 38.02 0 0 55.45 -9.75 0 0 -46.65 -19.16 0 0 4.99c0,8.6 -0.37,15.75 -1.11,21.42 -0.74,5.68 -1.9,10.01 -3.49,12.99 -1.58,2.99 -3.36,5.05 -5.34,6.18 -1.98,1.13 -4.45,1.7 -7.41,1.7zm60.59 -0.63l0 -55.45 9.59 0 0 40.48 28.04 -40.48 9.11 0 0 55.45 -9.59 0 0 -40.4 -27.96 40.4 -9.19 0zm61.07 0l0 -55.45 9.75 0 0 27.88 26.37 -27.88 11.96 0 -23.05 23.85 24.08 31.6 -11.8 0 -18.93 -24.95 -8.63 8.87 0 16.08 -9.75 0zm52.68 0l24.39 -55.84 9.03 0 24.4 55.84 -10.3 0 -5.62 -13.39 -26.22 0 -5.7 13.39 -9.98 0zm19.24 -22.02l19.09 0 -9.58 -22.18 -9.51 22.18zm73.82 22.97c-8.02,0 -14.73,-2.76 -20.11,-8.28 -5.39,-5.52 -8.08,-12.31 -8.08,-20.39 0,-8.03 2.69,-14.82 8.08,-20.36 5.38,-5.54 12.22,-8.32 20.51,-8.32 4.81,0 8.88,0.74 12.24,2.22 3.35,1.48 6.51,3.62 9.46,6.42l-6.25 7.21c-4.97,-4.6 -10.14,-6.9 -15.53,-6.9 -5.28,0 -9.65,1.91 -13.11,5.71 -3.46,3.8 -5.18,8.47 -5.18,14.02 0,5.49 1.74,10.15 5.22,13.98 3.49,3.82 7.84,5.74 13.07,5.74 3.17,0 5.97,-0.59 8.4,-1.78 2.43,-1.19 4.94,-3 7.52,-5.43l6.26 6.34c-3.12,3.27 -6.42,5.73 -9.9,7.37 -3.49,1.63 -7.68,2.45 -12.6,2.45zm32.72 -0.95l0 -55.45 9.66 0 0 19.96 12.75 0c6.34,0 11.4,1.52 15.17,4.56 3.78,3.04 5.67,7.3 5.67,12.79 0,5.6 -1.88,10.02 -5.63,13.27 -3.75,3.25 -8.84,4.87 -15.29,4.87l-22.33 0zm9.66 -8.71l12.52 0c3.64,0 6.45,-0.81 8.43,-2.42 1.98,-1.61 2.97,-3.97 2.97,-7.09 0,-2.85 -1,-5.03 -3.01,-6.53 -2,-1.51 -4.86,-2.26 -8.55,-2.26l-12.36 0 0 18.3zm40.16 8.71l0 -55.45 9.66 0 0 55.45 -9.66 0zm23.92 0l0 -55.45 9.74 0 0 23.05 26.46 0 0 -23.05 9.74 0 0 55.45 -9.74 0 0 -23.37 -26.46 0 0 23.37 -9.74 0zm60.2 0l0 -55.45 9.66 0 0 19.96 12.75 0c6.34,0 11.4,1.52 15.17,4.56 3.78,3.04 5.67,7.3 5.67,12.79 0,5.6 -1.88,10.02 -5.63,13.27 -3.75,3.25 -8.84,4.87 -15.29,4.87l-22.33 0zm9.66 -8.71l12.52 0c3.64,0 6.45,-0.81 8.43,-2.42 1.98,-1.61 2.97,-3.97 2.97,-7.09 0,-2.85 -1,-5.03 -3.01,-6.53 -2.01,-1.51 -4.86,-2.26 -8.55,-2.26l-12.36 0 0 18.3zm40.16 8.71l0 -55.45 9.66 0 0 55.45 -9.66 0zm23.92 0l0 -55.45 9.74 0 0 23.05 26.46 0 0 -23.05 9.74 0 0 55.45 -9.74 0 0 -23.37 -26.46 0 0 23.37 -9.74 0zm-1225.74 88.87l0 -55.44 10.38 0 16.87 26.21 16.87 -26.21 10.38 0 0 55.44 -9.74 0 0 -39.76 -17.51 26.14 -0.31 0 -17.35 -25.98 0 39.6 -9.59 0zm480.64 11.49l-1.03 -4.04c4.54,-0.9 6.81,-3.09 6.81,-6.58 0,-0.1 -0.01,-0.25 -0.04,-0.43 -0.03,-0.19 -0.04,-0.33 -0.04,-0.44l-4.04 0 0 -10.85 10.53 0 0 9.19c0,4.27 -1,7.46 -3.01,9.54 -2,2.09 -5.06,3.29 -9.18,3.61zm555.96 0l-1.03 -4.04c4.54,-0.9 6.81,-3.09 6.81,-6.58 0,-0.1 -0.02,-0.25 -0.04,-0.43 -0.03,-0.19 -0.04,-0.33 -0.04,-0.44l-4.04 0 0 -10.85 10.53 0 0 9.19c0,4.27 -1,7.46 -3.01,9.54 -2,2.09 -5.07,3.29 -9.18,3.61zm-972.6 -11.49l24.4 -55.84 9.03 0 24.4 55.84 -10.3 0 -5.62 -13.38 -26.22 0 -5.71 13.38 -9.98 0zm19.25 -22.02l19.09 0 -9.58 -22.18 -9.51 22.18zm41.74 33.9l0 -20.59 5.39 0c4.7,-9.3 7.05,-22.26 7.05,-38.89l0 -7.84 38.65 0 0 46.73 6.89 0 -1.34 20.59 -8.08 0 0 -11.88 -39.05 0 -0.95 11.88 -8.56 0zm15.77 -20.59l25.58 0 0 -37.94 -19.56 0 0 6.34c0,12.93 -2.01,23.47 -6.02,31.6zm46.17 8.71l24.4 -55.84 9.03 0 24.4 55.84 -10.3 0 -5.62 -13.38 -26.22 0 -5.7 13.38 -9.99 0zm19.25 -22.02l19.09 0 -9.58 -22.18 -9.51 22.18zm48.08 22.02l0 -55.44 9.74 0 0 23.05 26.46 0 0 -23.05 9.74 0 0 55.44 -9.74 0 0 -23.36 -26.46 0 0 23.36 -9.74 0zm60.2 0l0 -55.44 9.58 0 0 40.47 28.04 -40.47 9.11 0 0 55.44 -9.58 0 0 -40.4 -27.96 40.4 -9.19 0zm56.79 0l15.13 -20.83c-4.07,-1.11 -7.29,-3.1 -9.66,-5.98 -2.38,-2.88 -3.57,-6.54 -3.57,-10.97 0,-5.39 1.85,-9.68 5.55,-12.87 3.69,-3.2 8.74,-4.79 15.13,-4.79l24.63 0 0 55.44 -9.66 0 0 -19.17 -12.28 0 -13.78 19.17 -11.49 0zm23.21 -27.64l14.34 0 0 -19.01 -14.18 0c-3.65,0 -6.5,0.83 -8.56,2.49 -2.06,1.67 -3.09,4 -3.09,7.01 0,2.91 1.05,5.22 3.13,6.93 2.09,1.72 4.87,2.58 8.36,2.58zm51.88 27.64l0 -46.41 -17.59 0 0 -9.03 44.99 0 0 9.03 -17.58 0 0 46.41 -9.82 0zm82.77 0l0 -55.44 10.38 0 16.87 26.21 16.87 -26.21 10.38 0 0 55.44 -9.75 0 0 -39.76 -17.5 26.14 -0.32 0 -17.34 -25.98 0 39.6 -9.59 0zm64 0l24.4 -55.84 9.03 0 24.39 55.84 -10.29 0 -5.63 -13.38 -26.21 0 -5.71 13.38 -9.98 0zm19.25 -22.02l19.09 0 -9.59 -22.18 -9.5 22.18zm43.33 22.02l24.39 -55.84 9.03 0 24.4 55.84 -10.3 0 -5.62 -13.38 -26.22 0 -5.7 13.38 -9.98 0zm19.24 -22.02l19.09 0 -9.58 -22.18 -9.51 22.18zm48.08 22.66c-2.27,0 -4.51,-0.3 -6.73,-0.88l0.95 -8c0.95,0.32 2.01,0.48 3.17,0.48 1.27,0 2.36,-0.2 3.29,-0.6 0.92,-0.39 1.9,-1.33 2.93,-2.81 1.03,-1.48 1.84,-3.5 2.45,-6.06 0.61,-2.56 1.12,-6.13 1.55,-10.73 0.42,-4.59 0.63,-10.11 0.63,-16.55l0 -10.93 38.02 0 0 55.44 -9.74 0 0 -46.65 -19.17 0 0 4.99c0,8.6 -0.37,15.75 -1.11,21.42 -0.74,5.68 -1.9,10.01 -3.48,12.99 -1.59,2.99 -3.37,5.05 -5.35,6.18 -1.98,1.14 -4.45,1.71 -7.41,1.71zm60.6 -0.64l0 -55.44 9.66 0 0 19.96 12.75 0c6.34,0 11.39,1.51 15.17,4.55 3.78,3.04 5.66,7.3 5.66,12.79 0,5.6 -1.87,10.02 -5.62,13.27 -3.75,3.25 -8.84,4.87 -15.29,4.87l-22.33 0zm9.66 -8.71l12.51 0c3.65,0 6.46,-0.81 8.44,-2.42 1.98,-1.61 2.97,-3.97 2.97,-7.09 0,-2.85 -1,-5.03 -3.01,-6.53 -2.01,-1.51 -4.86,-2.26 -8.55,-2.26l-12.36 0 0 18.3zm40.16 8.71l0 -55.44 9.66 0 0 55.44 -9.66 0zm23.92 0l0 -55.44 10.38 0 16.87 26.21 16.87 -26.21 10.37 0 0 55.44 -9.74 0 0 -39.76 -17.5 26.14 -0.32 0 -17.35 -25.98 0 39.6 -9.58 0zm64 0l24.4 -55.84 9.02 0 24.4 55.84 -10.3 0 -5.62 -13.38 -26.22 0 -5.7 13.38 -9.98 0zm19.25 -22.02l19.08 0 -9.58 -22.18 -9.5 22.18zm61.7 22.02l0 -46.41 -17.59 0 0 -9.03 44.99 0 0 9.03 -17.58 0 0 46.41 -9.82 0zm108.51 0.95c-8.02,0 -14.73,-2.76 -20.11,-8.28 -5.39,-5.51 -8.08,-12.31 -8.08,-20.39 0,-8.03 2.69,-14.81 8.08,-20.36 5.38,-5.54 12.22,-8.31 20.51,-8.31 4.81,0 8.88,0.73 12.24,2.21 3.35,1.48 6.51,3.62 9.46,6.42l-6.25 7.21c-4.97,-4.6 -10.14,-6.89 -15.53,-6.89 -5.28,0 -9.65,1.9 -13.11,5.7 -3.46,3.8 -5.19,8.47 -5.19,14.02 0,5.49 1.75,10.15 5.23,13.98 3.49,3.83 7.84,5.74 13.07,5.74 3.17,0 5.97,-0.59 8.4,-1.78 2.43,-1.19 4.93,-3 7.52,-5.43l6.26 6.34c-3.12,3.27 -6.42,5.73 -9.9,7.37 -3.49,1.63 -7.68,2.45 -12.6,2.45zm32.72 -0.95l0 -55.44 45.22 0 0 55.44 -9.74 0 0 -46.65 -25.74 0 0 46.65 -9.74 0zm106.77 -7.44c-5.49,5.59 -12.44,8.39 -20.83,8.39 -8.4,0 -15.32,-2.77 -20.75,-8.32 -5.44,-5.54 -8.16,-12.33 -8.16,-20.35 0,-7.92 2.74,-14.68 8.23,-20.28 5.5,-5.6 12.44,-8.39 20.84,-8.39 8.39,0 15.31,2.77 20.75,8.31 5.44,5.55 8.16,12.33 8.16,20.36 0,7.92 -2.75,14.68 -8.24,20.28zm-34.18 -6.3c3.57,3.83 8.07,5.74 13.51,5.74 5.44,0 9.91,-1.9 13.42,-5.7 3.51,-3.8 5.27,-8.48 5.27,-14.02 0,-5.49 -1.78,-10.15 -5.35,-13.98 -3.56,-3.83 -8.06,-5.74 -13.5,-5.74 -5.44,0 -9.92,1.9 -13.43,5.7 -3.51,3.8 -5.26,8.47 -5.26,14.02 0,5.49 1.78,10.15 5.34,13.98zm54.22 13.74l0 -55.44 21.86 0c6.44,0 11.56,1.69 15.36,5.06 3.81,3.38 5.71,7.93 5.71,13.63 0,5.97 -2.1,10.61 -6.3,13.94 -4.2,3.33 -9.49,4.99 -15.88,4.99l-11.01 0 0 17.82 -9.74 0zm9.74 -26.61l11.33 0c3.64,0 6.55,-0.93 8.71,-2.78 2.16,-1.84 3.25,-4.27 3.25,-7.28 0,-3.17 -1.07,-5.61 -3.21,-7.33 -2.14,-1.71 -5.06,-2.57 -8.75,-2.57l-11.33 0 0 19.96zm56.79 26.61l0 -46.41 -17.58 0 0 -9.03 44.99 0 0 9.03 -17.59 0 0 46.41 -9.82 0zm102.18 0l-9.66 0 0 -14.73 -8.72 -9.9 -16.55 24.63 -11.72 0 21.86 -31.84 -20.75 -23.6 11.64 0 24.24 28.83 0 -28.83 9.66 0 0 28.83 24.24 -28.83 11.64 0 -20.83 23.6 21.94 31.84 -11.72 0 -16.56 -24.63 -8.71 9.9 0 14.73zm40.56 0l24.39 -55.84 9.03 0 24.4 55.84 -10.3 0 -5.62 -13.38 -26.22 0 -5.7 13.38 -9.98 0zm19.24 -22.02l19.09 0 -9.58 -22.18 -9.51 22.18zm48.08 22.02l0 -55.44 9.74 0 0 23.05 26.46 0 0 -23.05 9.74 0 0 55.44 -9.74 0 0 -23.36 -26.46 0 0 23.36 -9.74 0zm55.45 0l24.39 -55.84 9.03 0 24.4 55.84 -10.3 0 -5.62 -13.38 -26.22 0 -5.7 13.38 -9.98 0zm19.24 -22.02l19.09 0 -9.58 -22.18 -9.51 22.18zm-1580.9 110.89l-9.66 0 0 -14.73 -8.72 -9.9 -16.55 24.63 -11.73 0 21.87 -31.84 -20.76 -23.6 11.65 0 24.24 28.83 0 -28.83 9.66 0 0 28.83 24.24 -28.83 11.64 0 -20.83 23.6 21.94 31.84 -11.73 0 -16.55 -24.63 -8.71 9.9 0 14.73zm40.55 0l24.4 -55.84 9.03 0 24.39 55.84 -10.29 0 -5.63 -13.38 -26.21 0 -5.71 13.38 -9.98 0zm19.25 -22.02l19.09 0 -9.58 -22.18 -9.51 22.18zm48.08 22.02l0 -55.44 9.66 0 0 46.73 21.78 0 0 -46.73 9.75 0 0 46.73 21.78 0 0 -46.73 9.66 0 0 55.44 -72.63 0zm100.51 0l0 -46.41 -17.58 0 0 -9.03 44.99 0 0 9.03 -17.58 0 0 46.41 -9.83 0zm32.95 0l24.4 -55.84 9.03 0 24.39 55.84 -10.29 0 -5.63 -13.38 -26.21 0 -5.71 13.38 -9.98 0zm19.25 -22.02l19.09 0 -9.58 -22.18 -9.51 22.18zm48.08 22.02l0 -55.44 21.86 0c6.44,0 11.56,1.69 15.37,5.07 3.8,3.38 5.7,7.92 5.7,13.62 0,5.97 -2.1,10.61 -6.3,13.94 -4.2,3.33 -9.49,4.99 -15.88,4.99l-11.01 0 0 17.82 -9.74 0zm9.74 -26.61l11.33 0c3.64,0 6.55,-0.93 8.71,-2.77 2.17,-1.85 3.25,-4.28 3.25,-7.29 0,-3.17 -1.07,-5.61 -3.21,-7.33 -2.14,-1.71 -5.05,-2.57 -8.75,-2.57l-11.33 0 0 19.96zm92.67 27.56c-8.02,0 -14.73,-2.76 -20.11,-8.27 -5.39,-5.52 -8.08,-12.32 -8.08,-20.4 0,-8.03 2.69,-14.81 8.08,-20.36 5.38,-5.54 12.22,-8.31 20.51,-8.31 4.81,0 8.88,0.74 12.24,2.21 3.35,1.48 6.51,3.62 9.46,6.42l-6.25 7.21c-4.97,-4.6 -10.14,-6.89 -15.53,-6.89 -5.28,0 -9.65,1.9 -13.11,5.7 -3.46,3.8 -5.18,8.48 -5.18,14.02 0,5.49 1.74,10.15 5.22,13.98 3.49,3.83 7.84,5.74 13.07,5.74 3.17,0 5.97,-0.59 8.4,-1.78 2.43,-1.19 4.94,-3 7.52,-5.43l6.26 6.34c-3.12,3.27 -6.42,5.73 -9.9,7.37 -3.49,1.64 -7.68,2.45 -12.6,2.45zm27.97 -0.95l24.39 -55.84 9.03 0 24.4 55.84 -10.3 0 -5.62 -13.38 -26.22 0 -5.7 13.38 -9.98 0zm19.24 -22.02l19.09 0 -9.58 -22.18 -9.51 22.18zm43.8 22.02l15.13 -20.83c-4.06,-1.11 -7.28,-3.1 -9.66,-5.98 -2.38,-2.88 -3.56,-6.53 -3.56,-10.97 0,-5.38 1.84,-9.68 5.54,-12.87 3.7,-3.19 8.74,-4.79 15.13,-4.79l24.63 0 0 55.44 -9.66 0 0 -19.17 -12.28 0 -13.78 19.17 -11.49 0zm23.21 -27.64l14.34 0 0 -19.01 -14.18 0c-3.64,0 -6.49,0.83 -8.55,2.49 -2.06,1.67 -3.09,4 -3.09,7.01 0,2.91 1.04,5.22 3.12,6.93 2.09,1.72 4.88,2.58 8.36,2.58zm64 28.59c-8.03,0 -14.73,-2.76 -20.12,-8.27 -5.38,-5.52 -8.08,-12.32 -8.08,-20.4 0,-8.03 2.7,-14.81 8.08,-20.36 5.39,-5.54 12.23,-8.31 20.52,-8.31 4.8,0 8.88,0.74 12.23,2.21 3.36,1.48 6.51,3.62 9.47,6.42l-6.26 7.21c-4.96,-4.6 -10.14,-6.89 -15.52,-6.89 -5.28,0 -9.65,1.9 -13.11,5.7 -3.46,3.8 -5.19,8.48 -5.19,14.02 0,5.49 1.74,10.15 5.23,13.98 3.48,3.83 7.84,5.74 13.07,5.74 3.17,0 5.97,-0.59 8.39,-1.78 2.43,-1.19 4.94,-3 7.53,-5.43l6.26 6.34c-3.12,3.27 -6.42,5.73 -9.91,7.37 -3.48,1.64 -7.68,2.45 -12.59,2.45zm27.96 -0.95l24.4 -55.84 9.03 0 24.39 55.84 -10.29 0 -5.63 -13.38 -26.22 0 -5.7 13.38 -9.98 0zm19.25 -22.02l19.09 0 -9.59 -22.18 -9.5 22.18zm61.7 22.02l0 -46.41 -17.58 0 0 -9.03 44.99 0 0 9.03 -17.59 0 0 46.41 -9.82 0zm37.7 0l0 -55.44 9.67 0 0 19.96 12.75 0c6.34,0 11.39,1.52 15.17,4.55 3.77,3.04 5.66,7.3 5.66,12.79 0,5.6 -1.87,10.02 -5.62,13.27 -3.75,3.25 -8.85,4.87 -15.29,4.87l-22.34 0zm9.67 -8.71l12.51 0c3.65,0 6.46,-0.81 8.44,-2.42 1.98,-1.61 2.97,-3.97 2.97,-7.09 0,-2.85 -1,-5.03 -3.01,-6.53 -2.01,-1.5 -4.86,-2.26 -8.55,-2.26l-12.36 0 0 18.3zm40.16 8.71l0 -55.44 9.66 0 0 55.44 -9.66 0zm47.68 0l0 -55.44 10.38 0 16.87 26.21 16.87 -26.21 10.37 0 0 55.44 -9.74 0 0 -39.76 -17.5 26.14 -0.32 0 -17.35 -25.98 0 39.6 -9.58 0zm68.75 0l0 -55.44 9.59 0 0 40.47 28.03 -40.47 9.11 0 0 55.44 -9.58 0 0 -40.39 -27.96 40.39 -9.19 0zm61.07 0l0 -55.44 9.74 0 0 23.05 26.46 0 0 -23.05 9.74 0 0 55.44 -9.74 0 0 -23.36 -26.46 0 0 23.36 -9.74 0zm60.2 0l0 -55.44 9.58 0 0 40.47 28.04 -40.47 9.11 0 0 55.44 -9.58 0 0 -40.39 -27.96 40.39 -9.19 0zm86.81 0.95c-8.03,0 -14.73,-2.76 -20.12,-8.27 -5.38,-5.52 -8.08,-12.32 -8.08,-20.4 0,-8.03 2.7,-14.81 8.08,-20.36 5.39,-5.54 12.23,-8.31 20.52,-8.31 4.8,0 8.88,0.74 12.23,2.21 3.36,1.48 6.51,3.62 9.47,6.42l-6.26 7.21c-4.96,-4.6 -10.14,-6.89 -15.52,-6.89 -5.28,0 -9.65,1.9 -13.11,5.7 -3.46,3.8 -5.19,8.48 -5.19,14.02 0,5.49 1.74,10.15 5.23,13.98 3.48,3.83 7.84,5.74 13.07,5.74 3.17,0 5.97,-0.59 8.39,-1.78 2.43,-1.19 4.94,-3 7.53,-5.43l6.26 6.34c-3.12,3.27 -6.42,5.73 -9.91,7.37 -3.48,1.64 -7.68,2.45 -12.59,2.45zm46.34 -0.95l0 -46.41 -17.59 0 0 -9.03 44.99 0 0 9.03 -17.58 0 0 46.41 -9.82 0zm37.7 0l0 -55.44 21.86 0c6.44,0 11.57,1.69 15.37,5.07 3.8,3.38 5.7,7.92 5.7,13.62 0,5.97 -2.1,10.61 -6.3,13.94 -4.19,3.33 -9.49,4.99 -15.88,4.99l-11.01 0 0 17.82 -9.74 0zm9.74 -26.61l11.33 0c3.64,0 6.55,-0.93 8.71,-2.77 2.17,-1.85 3.25,-4.28 3.25,-7.29 0,-3.17 -1.07,-5.61 -3.21,-7.33 -2.14,-1.71 -5.05,-2.57 -8.75,-2.57l-11.33 0 0 19.96zm43.17 27.25c-2.27,0 -4.51,-0.3 -6.73,-0.88l0.95 -8c0.95,0.32 2,0.48 3.17,0.48 1.26,0 2.36,-0.2 3.28,-0.59 0.93,-0.4 1.91,-1.34 2.93,-2.82 1.03,-1.47 1.85,-3.49 2.46,-6.05 0.61,-2.57 1.12,-6.14 1.54,-10.74 0.43,-4.59 0.64,-10.11 0.64,-16.55l0 -10.93 38.02 0 0 55.44 -9.75 0 0 -46.65 -19.16 0 0 4.99c0,8.61 -0.37,15.75 -1.11,21.43 -0.74,5.67 -1.9,10 -3.49,12.99 -1.58,2.98 -3.36,5.04 -5.34,6.17 -1.98,1.14 -4.45,1.71 -7.41,1.71zm60.59 -0.64l0 -55.44 9.59 0 0 40.47 28.04 -40.47 9.11 0 0 55.44 -9.59 0 0 -40.39 -27.96 40.39 -9.19 0zm61.07 0l0 -55.44 37.31 0 0 8.79 -27.64 0 0 46.65 -9.67 0zm47.05 0l0 -55.44 9.59 0 0 40.47 28.04 -40.47 9.11 0 0 55.44 -9.59 0 0 -40.39 -27.96 40.39 -9.19 0z"/>
 </g>
</svg>
