<?xml version="1.0" encoding="UTF-8"?>
<!DOCTYPE svg PUBLIC "-//W3C//DTD SVG 1.1//EN" "http://www.w3.org/Graphics/SVG/1.1/DTD/svg11.dtd">
<!-- Creator: CorelDRAW 2021.5 -->
<svg xmlns="http://www.w3.org/2000/svg" xml:space="preserve" width="1380px" height="267px" version="1.1" style="shape-rendering:geometricPrecision; text-rendering:geometricPrecision; image-rendering:optimizeQuality; fill-rule:evenodd; clip-rule:evenodd"
viewBox="0 0 881.95 170.78"
 xmlns:xlink="http://www.w3.org/1999/xlink"
 xmlns:xodm="http://www.corel.com/coreldraw/odm/2003">
 <defs>
  <style type="text/css">
   <![CDATA[
    .str0 {stroke:#247ABF;stroke-width:7.11;stroke-miterlimit:22.9256}
    .fil0 {fill:none}
    .fil1 {fill:#E6E6E6;fill-rule:nonzero}
   ]]>
  </style>
 </defs>
 <g id="Слой_x0020_1">
  <metadata id="CorelCorpID_0Corel-Layer"/>
  <path class="fil0 str0" d="M139.54 146.38c-14.47,12.92 -33.51,20.84 -54.15,20.84 -20.64,0 -38.36,-7.55 -52.68,-19.85 17.66,-3.6 37.14,-5.45 56.02,-5.45 18.88,0 34.71,1.54 50.81,4.46zm-54.15 -142.82c45.2,0 81.83,36.63 81.83,81.83 0,45.2 -36.63,81.83 -81.83,81.83 -45.2,0 -81.83,-36.63 -81.83,-81.83 0,-45.2 36.63,-81.83 81.83,-81.83zm45.93 14.1c-27.54,18.71 -64.32,18.71 -91.86,0 13.1,-8.9 28.9,-14.1 45.93,-14.1 17.03,0 32.84,5.2 45.93,14.1zm34.88 67.07l-0.01 0.48 -59.51 0c-11.57,0 -21.03,9.46 -21.03,21.03l0 35.54 -0.72 0 0 -35.54c0,-11.57 -9.46,-21.03 -21.03,-21.03l-60.23 0 0 -0.48 60.23 0c11.57,0 21.03,-9.46 21.03,-21.03l0 -32.01 0.72 0 0 32.01c0,11.56 9.46,21.03 21.03,21.03l59.52 0z"/>
  <path class="fil1" d="M212.17 60.47l0 -22.37 3.94 0 0 11.25 10.64 -11.25 4.82 0 -9.3 9.62 9.72 12.75 -4.76 0 -7.64 -10.07 -3.48 3.58 0 6.49 -3.94 0zm23.17 0l0 -22.37 3.9 0 0 8.05 5.14 0c2.56,0 4.6,0.61 6.12,1.84 1.53,1.22 2.29,2.94 2.29,5.16 0,2.26 -0.76,4.04 -2.27,5.35 -1.51,1.31 -3.57,1.97 -6.17,1.97l-9.01 0zm3.9 -3.52l5.05 0c1.47,0 2.6,-0.32 3.4,-0.97 0.8,-0.65 1.2,-1.61 1.2,-2.86 0,-1.15 -0.4,-2.03 -1.21,-2.64 -0.81,-0.61 -1.96,-0.91 -3.45,-0.91l-4.99 0 0 7.38zm16.2 3.52l0 -22.37 3.9 0 0 22.37 -3.9 0zm9.65 0l0 -22.37 8.82 0c2.6,0 4.67,0.68 6.2,2.04 1.53,1.37 2.3,3.2 2.3,5.5 0,2.41 -0.85,4.28 -2.54,5.62 -1.69,1.35 -3.83,2.02 -6.41,2.02l-4.44 0 0 7.19 -3.93 0zm3.93 -10.74l4.57 0c1.47,0 2.64,-0.37 3.52,-1.12 0.87,-0.74 1.31,-1.73 1.31,-2.94 0,-1.28 -0.43,-2.26 -1.3,-2.95 -0.86,-0.7 -2.04,-1.04 -3.53,-1.04l-4.57 0 0 8.05zm17.42 10.74l0 -22.37 15.05 0 0 3.54 -11.15 0 0 18.83 -3.9 0zm18.98 0l0 -22.37 3.9 0 0 8.05 5.14 0c2.56,0 4.6,0.61 6.12,1.84 1.52,1.22 2.29,2.94 2.29,5.16 0,2.26 -0.76,4.04 -2.27,5.35 -1.52,1.31 -3.57,1.97 -6.17,1.97l-9.01 0zm3.9 -3.52l5.05 0c1.47,0 2.6,-0.32 3.4,-0.97 0.8,-0.65 1.2,-1.61 1.2,-2.86 0,-1.15 -0.41,-2.03 -1.22,-2.64 -0.81,-0.61 -1.96,-0.91 -3.45,-0.91l-4.98 0 0 7.38zm16.2 3.52l0 -22.37 3.9 0 0 22.37 -3.9 0zm17.25 -22.76c2.3,0 4.19,0.57 5.66,1.7 1.47,1.13 2.2,2.56 2.2,4.31 0,2.41 -1.26,4.15 -3.8,5.21 1.34,0.41 2.41,1.06 3.2,1.95 0.79,0.89 1.18,2.03 1.18,3.42 0,1.89 -0.76,3.46 -2.27,4.7 -1.51,1.23 -3.49,1.85 -5.94,1.85 -2.11,0 -3.93,-0.3 -5.45,-0.91 -1.52,-0.61 -2.94,-1.53 -4.23,-2.77l2.14 -2.71c2.08,1.98 4.57,2.97 7.44,2.97 1.24,0 2.28,-0.3 3.12,-0.91 0.84,-0.61 1.26,-1.42 1.26,-2.45 0,-1.1 -0.47,-1.92 -1.41,-2.46 -0.93,-0.53 -2.17,-0.79 -3.7,-0.79l-2.53 0 0 -3.26 2.49 0c1.45,0 2.58,-0.29 3.39,-0.85 0.81,-0.56 1.22,-1.37 1.22,-2.41 0,-0.94 -0.39,-1.7 -1.17,-2.27 -0.78,-0.58 -1.79,-0.86 -3.05,-0.86 -2.45,0 -4.54,0.83 -6.27,2.49l-2.1 -2.56c2.36,-2.26 5.24,-3.39 8.62,-3.39zm22.63 22.76l0 -22.37 8.82 0c2.6,0 4.66,0.68 6.2,2.04 1.53,1.37 2.3,3.2 2.3,5.5 0,2.41 -0.85,4.28 -2.54,5.62 -1.7,1.35 -3.83,2.02 -6.41,2.02l-4.44 0 0 7.19 -3.93 0zm3.93 -10.74l4.57 0c1.47,0 2.64,-0.37 3.51,-1.12 0.88,-0.74 1.31,-1.73 1.31,-2.94 0,-1.28 -0.43,-2.26 -1.29,-2.95 -0.86,-0.7 -2.04,-1.04 -3.53,-1.04l-4.57 0 0 8.05zm17.41 10.74l0 -22.37 16.59 0 0 3.51 -12.66 0 0 5.82 11.22 0 0 3.51 -11.22 0 0 6.01 12.82 0 0 3.52 -16.75 0zm31.8 0.38c-3.24,0 -5.95,-1.11 -8.12,-3.34 -2.17,-2.23 -3.26,-4.97 -3.26,-8.23 0,-3.24 1.09,-5.97 3.26,-8.21 2.17,-2.24 4.93,-3.36 8.28,-3.36 1.94,0 3.58,0.3 4.93,0.9 1.36,0.6 2.63,1.46 3.82,2.59l-2.52 2.91c-2,-1.86 -4.09,-2.78 -6.26,-2.78 -2.13,0 -3.9,0.76 -5.29,2.3 -1.4,1.53 -2.1,3.41 -2.1,5.65 0,2.22 0.71,4.1 2.11,5.64 1.41,1.55 3.17,2.32 5.28,2.32 1.27,0 2.4,-0.24 3.38,-0.72 0.98,-0.48 2,-1.21 3.04,-2.19l2.52 2.56c-1.25,1.32 -2.58,2.31 -3.99,2.97 -1.41,0.66 -3.1,0.99 -5.08,0.99zm13.2 -0.38l0 -22.37 18.24 0 0 22.37 -3.93 0 0 -18.83 -10.38 0 0 18.83 -3.93 0zm27.86 0.35c-1.53,0 -2.99,-0.38 -4.38,-1.12l1.5 -2.94c0.84,0.47 1.75,0.7 2.75,0.7 1.34,0 2.52,-0.81 3.52,-2.43l-9.33 -16.93 4.41 0 6.96 13 6.14 -13 4.25 0 -8.73 17.48c-1.72,3.49 -4.09,5.24 -7.09,5.24zm19.53 -0.35l0 -22.37 16.68 0 0 3.54 -12.79 0 0 5.15 6.24 0c2.49,0 4.46,0.6 5.92,1.79 1.46,1.19 2.19,2.85 2.19,4.98 0,2.22 -0.73,3.92 -2.2,5.12 -1.47,1.19 -3.51,1.79 -6.11,1.79l-9.93 0zm3.89 -3.52l5.18 0c1.79,0 3.11,-0.26 3.96,-0.78 0.85,-0.52 1.28,-1.45 1.28,-2.77 0,-2.19 -1.51,-3.29 -4.54,-3.29l-5.88 0 0 6.84zm18.79 3.77c-0.91,0 -1.82,-0.12 -2.71,-0.35l0.38 -3.23c0.38,0.13 0.81,0.19 1.28,0.19 0.51,0 0.95,-0.08 1.32,-0.24 0.38,-0.16 0.77,-0.53 1.19,-1.13 0.41,-0.6 0.74,-1.41 0.99,-2.44 0.24,-1.04 0.45,-2.48 0.62,-4.33 0.17,-1.86 0.26,-4.08 0.26,-6.68l0 -4.41 15.33 0 0 22.37 -3.93 0 0 -18.83 -7.73 0 0 2.02c0,3.47 -0.15,6.35 -0.45,8.64 -0.29,2.29 -0.76,4.04 -1.4,5.24 -0.64,1.21 -1.36,2.04 -2.16,2.5 -0.8,0.45 -1.79,0.68 -2.99,0.68zm24.45 -0.25l0 -22.37 3.86 0 0 16.33 11.32 -16.33 3.67 0 0 22.37 -3.87 0 0 -16.3 -11.27 16.3 -3.71 0zm24.64 0l0 -22.37 3.93 0 0 11.25 10.64 -11.25 4.82 0 -9.3 9.62 9.72 12.75 -4.76 0 -7.64 -10.07 -3.48 3.58 0 6.49 -3.93 0zm21.25 0l9.84 -22.53 3.64 0 9.84 22.53 -4.15 0 -2.27 -5.4 -10.58 0 -2.3 5.4 -4.02 0zm7.76 -8.89l7.7 0 -3.86 -8.94 -3.84 8.94zm29.78 9.27c-3.24,0 -5.94,-1.11 -8.11,-3.34 -2.18,-2.23 -3.26,-4.97 -3.26,-8.23 0,-3.24 1.08,-5.97 3.26,-8.21 2.17,-2.24 4.93,-3.36 8.27,-3.36 1.94,0 3.59,0.3 4.94,0.9 1.35,0.6 2.62,1.46 3.82,2.59l-2.53 2.91c-2,-1.86 -4.09,-2.78 -6.26,-2.78 -2.13,0 -3.89,0.76 -5.29,2.3 -1.39,1.53 -2.09,3.41 -2.09,5.65 0,2.22 0.7,4.1 2.11,5.64 1.4,1.55 3.16,2.32 5.27,2.32 1.28,0 2.41,-0.24 3.39,-0.72 0.98,-0.48 1.99,-1.21 3.03,-2.19l2.53 2.56c-1.26,1.32 -2.59,2.31 -4,2.97 -1.4,0.66 -3.1,0.99 -5.08,0.99zm13.2 -0.38l0 -22.37 3.9 0 0 8.05 5.14 0c2.56,0 4.6,0.61 6.12,1.84 1.53,1.22 2.29,2.94 2.29,5.16 0,2.26 -0.76,4.04 -2.27,5.35 -1.51,1.31 -3.57,1.97 -6.17,1.97l-9.01 0zm3.9 -3.52l5.05 0c1.47,0 2.6,-0.32 3.4,-0.97 0.8,-0.65 1.2,-1.61 1.2,-2.86 0,-1.15 -0.41,-2.03 -1.22,-2.64 -0.81,-0.61 -1.96,-0.91 -3.45,-0.91l-4.98 0 0 7.38zm16.2 3.52l0 -22.37 3.9 0 0 22.37 -3.9 0zm9.65 0l0 -22.37 3.93 0 0 9.3 10.67 0 0 -9.3 3.93 0 0 22.37 -3.93 0 0 -9.43 -10.67 0 0 9.43 -3.93 0zm24.29 0l0 -22.37 3.89 0 0 8.05 5.15 0c2.56,0 4.59,0.61 6.12,1.84 1.52,1.22 2.28,2.94 2.28,5.16 0,2.26 -0.75,4.04 -2.27,5.35 -1.51,1.31 -3.56,1.97 -6.16,1.97l-9.01 0zm3.89 -3.52l5.05 0c1.47,0 2.61,-0.32 3.41,-0.97 0.79,-0.65 1.19,-1.61 1.19,-2.86 0,-1.15 -0.4,-2.03 -1.21,-2.64 -0.81,-0.61 -1.96,-0.91 -3.45,-0.91l-4.99 0 0 7.38zm16.2 3.52l0 -22.37 3.9 0 0 22.37 -3.9 0zm9.66 0l0 -22.37 3.93 0 0 9.3 10.67 0 0 -9.3 3.93 0 0 22.37 -3.93 0 0 -9.43 -10.67 0 0 9.43 -3.93 0zm-494.51 35.85l0 -22.37 4.19 0 6.81 10.58 6.8 -10.58 4.19 0 0 22.37 -3.93 0 0 -16.04 -7.06 10.54 -0.13 0 -7 -10.48 0 15.98 -3.87 0zm193.91 4.63l-0.42 -1.63c1.83,-0.36 2.75,-1.24 2.75,-2.65 0,-0.04 -0.01,-0.1 -0.02,-0.17 -0.01,-0.08 -0.01,-0.14 -0.01,-0.18l-1.63 0 0 -4.38 4.25 0 0 3.71c0,1.72 -0.41,3.01 -1.22,3.85 -0.81,0.84 -2.04,1.33 -3.7,1.45zm224.29 0l-0.42 -1.63c1.83,-0.36 2.75,-1.24 2.75,-2.65 0,-0.04 0,-0.1 -0.01,-0.17 -0.02,-0.08 -0.02,-0.14 -0.02,-0.18l-1.63 0 0 -4.38 4.25 0 0 3.71c0,1.72 -0.41,3.01 -1.21,3.85 -0.81,0.84 -2.05,1.33 -3.71,1.45zm-392.38 -4.63l9.85 -22.53 3.64 0 9.84 22.53 -4.15 0 -2.27 -5.4 -10.58 0 -2.3 5.4 -4.03 0zm7.77 -8.88l7.7 0 -3.87 -8.95 -3.83 8.95zm16.84 13.67l0 -8.31 2.17 0c1.9,-3.74 2.85,-8.97 2.85,-15.69l0 -3.16 15.59 0 0 18.85 2.78 0 -0.54 8.31 -3.26 0 0 -4.79 -15.76 0 -0.38 4.79 -3.45 0zm6.36 -8.31l10.32 0 0 -15.3 -7.89 0 0 2.56c0,5.21 -0.81,9.46 -2.43,12.74zm18.63 3.52l9.84 -22.53 3.64 0 9.85 22.53 -4.16 0 -2.27 -5.4 -10.57 0 -2.31 5.4 -4.02 0zm7.76 -8.88l7.7 0 -3.86 -8.95 -3.84 8.95zm19.4 8.88l0 -22.37 3.93 0 0 9.3 10.67 0 0 -9.3 3.93 0 0 22.37 -3.93 0 0 -9.43 -10.67 0 0 9.43 -3.93 0zm24.29 0l0 -22.37 3.86 0 0 16.33 11.31 -16.33 3.68 0 0 22.37 -3.87 0 0 -16.3 -11.28 16.3 -3.7 0zm22.91 0l6.1 -8.4c-1.64,-0.45 -2.94,-1.26 -3.9,-2.42 -0.96,-1.16 -1.44,-2.63 -1.44,-4.42 0,-2.18 0.75,-3.91 2.24,-5.2 1.49,-1.28 3.53,-1.93 6.1,-1.93l9.94 0 0 22.37 -3.9 0 0 -7.73 -4.95 0 -5.56 7.73 -4.63 0zm9.36 -11.15l5.78 0 0 -7.67 -5.72 0c-1.47,0 -2.62,0.33 -3.45,1 -0.83,0.68 -1.24,1.62 -1.24,2.83 0,1.17 0.42,2.11 1.26,2.8 0.84,0.69 1.96,1.04 3.37,1.04zm20.93 11.15l0 -18.73 -7.09 0 0 -3.64 18.15 0 0 3.64 -7.1 0 0 18.73 -3.96 0zm33.39 0l0 -22.37 4.19 0 6.81 10.58 6.8 -10.58 4.19 0 0 22.37 -3.93 0 0 -16.04 -7.06 10.54 -0.13 0 -7 -10.48 0 15.98 -3.87 0zm25.82 0l9.85 -22.53 3.64 0 9.84 22.53 -4.15 0 -2.27 -5.4 -10.58 0 -2.3 5.4 -4.03 0zm7.77 -8.88l7.7 0 -3.87 -8.95 -3.83 8.95zm17.48 8.88l9.84 -22.53 3.64 0 9.84 22.53 -4.15 0 -2.27 -5.4 -10.58 0 -2.3 5.4 -4.02 0zm7.76 -8.88l7.7 0 -3.86 -8.95 -3.84 8.95zm19.4 9.14c-0.92,0 -1.82,-0.12 -2.72,-0.36l0.39 -3.22c0.38,0.12 0.81,0.19 1.27,0.19 0.52,0 0.96,-0.08 1.33,-0.24 0.37,-0.16 0.77,-0.54 1.18,-1.14 0.42,-0.59 0.75,-1.41 0.99,-2.44 0.25,-1.03 0.46,-2.48 0.63,-4.33 0.17,-1.85 0.25,-4.08 0.25,-6.68l0 -4.41 15.34 0 0 22.37 -3.93 0 0 -18.82 -7.73 0 0 2.01c0,3.47 -0.15,6.36 -0.45,8.65 -0.3,2.29 -0.77,4.03 -1.41,5.24 -0.64,1.2 -1.35,2.03 -2.15,2.49 -0.8,0.46 -1.8,0.69 -2.99,0.69zm24.44 -0.26l0 -22.37 3.9 0 0 8.05 5.15 0c2.55,0 4.59,0.62 6.12,1.84 1.52,1.23 2.28,2.95 2.28,5.16 0,2.26 -0.75,4.04 -2.27,5.35 -1.51,1.31 -3.57,1.97 -6.16,1.97l-9.02 0zm3.9 -3.52l5.05 0c1.47,0 2.61,-0.32 3.41,-0.97 0.79,-0.65 1.19,-1.6 1.19,-2.86 0,-1.15 -0.4,-2.03 -1.21,-2.64 -0.81,-0.6 -1.96,-0.91 -3.45,-0.91l-4.99 0 0 7.38zm16.2 3.52l0 -22.37 3.9 0 0 22.37 -3.9 0zm9.65 0l0 -22.37 4.19 0 6.81 10.58 6.8 -10.58 4.19 0 0 22.37 -3.93 0 0 -16.04 -7.06 10.54 -0.13 0 -7 -10.48 0 15.98 -3.87 0zm25.82 0l9.85 -22.53 3.64 0 9.84 22.53 -4.15 0 -2.27 -5.4 -10.58 0 -2.3 5.4 -4.03 0zm7.77 -8.88l7.7 0 -3.87 -8.95 -3.83 8.95zm24.89 8.88l0 -18.73 -7.09 0 0 -3.64 18.15 0 0 3.64 -7.1 0 0 18.73 -3.96 0zm43.78 0.38c-3.24,0 -5.94,-1.11 -8.12,-3.34 -2.17,-2.22 -3.26,-4.97 -3.26,-8.22 0,-3.24 1.09,-5.98 3.26,-8.22 2.18,-2.23 4.94,-3.35 8.28,-3.35 1.94,0 3.58,0.3 4.94,0.89 1.35,0.6 2.62,1.46 3.82,2.59l-2.53 2.91c-2,-1.85 -4.09,-2.78 -6.26,-2.78 -2.13,0 -3.89,0.77 -5.29,2.3 -1.4,1.53 -2.09,3.42 -2.09,5.66 0,2.21 0.7,4.09 2.11,5.64 1.4,1.54 3.16,2.31 5.27,2.31 1.28,0 2.41,-0.24 3.39,-0.72 0.98,-0.48 1.99,-1.21 3.03,-2.19l2.53 2.56c-1.26,1.32 -2.59,2.31 -4,2.97 -1.4,0.66 -3.1,0.99 -5.08,0.99zm13.2 -0.38l0 -22.37 18.24 0 0 22.37 -3.93 0 0 -18.82 -10.38 0 0 18.82 -3.93 0zm43.07 -3c-2.21,2.25 -5.01,3.38 -8.4,3.38 -3.39,0 -6.18,-1.12 -8.37,-3.35 -2.2,-2.24 -3.29,-4.98 -3.29,-8.21 0,-3.2 1.1,-5.93 3.32,-8.19 2.21,-2.25 5.02,-3.38 8.4,-3.38 3.39,0 6.18,1.12 8.38,3.35 2.19,2.24 3.29,4.98 3.29,8.22 0,3.19 -1.11,5.92 -3.33,8.18zm-13.79 -2.54c1.44,1.54 3.26,2.31 5.45,2.31 2.2,0 4,-0.76 5.42,-2.3 1.42,-1.53 2.12,-3.42 2.12,-5.65 0,-2.22 -0.71,-4.1 -2.15,-5.64 -1.44,-1.55 -3.26,-2.32 -5.45,-2.32 -2.2,0 -4,0.77 -5.42,2.3 -1.41,1.53 -2.12,3.42 -2.12,5.66 0,2.21 0.72,4.09 2.15,5.64zm21.88 5.54l0 -22.37 8.82 0c2.6,0 4.66,0.68 6.2,2.05 1.53,1.36 2.3,3.19 2.3,5.49 0,2.41 -0.85,4.28 -2.54,5.63 -1.7,1.34 -3.83,2.01 -6.41,2.01l-4.44 0 0 7.19 -3.93 0zm3.93 -10.74l4.57 0c1.47,0 2.64,-0.37 3.51,-1.12 0.88,-0.74 1.31,-1.72 1.31,-2.94 0,-1.27 -0.43,-2.26 -1.29,-2.95 -0.86,-0.69 -2.04,-1.04 -3.53,-1.04l-4.57 0 0 8.05zm22.91 10.74l0 -18.73 -7.09 0 0 -3.64 18.15 0 0 3.64 -7.1 0 0 18.73 -3.96 0zm41.22 0l-3.9 0 0 -5.94 -3.51 -4 -6.68 9.94 -4.73 0 8.82 -12.85 -8.37 -9.52 4.7 0 9.77 11.63 0 -11.63 3.9 0 0 11.63 9.78 -11.63 4.7 0 -8.41 9.52 8.85 12.85 -4.73 0 -6.67 -9.94 -3.52 4 0 5.94zm16.36 0l9.85 -22.53 3.64 0 9.84 22.53 -4.15 0 -2.27 -5.4 -10.58 0 -2.3 5.4 -4.03 0zm7.77 -8.88l7.7 0 -3.87 -8.95 -3.83 8.95zm19.39 8.88l0 -22.37 3.93 0 0 9.3 10.68 0 0 -9.3 3.93 0 0 22.37 -3.93 0 0 -9.43 -10.68 0 0 9.43 -3.93 0zm22.37 0l9.84 -22.53 3.65 0 9.84 22.53 -4.15 0 -2.27 -5.4 -10.58 0 -2.3 5.4 -4.03 0zm7.77 -8.88l7.7 0 -3.87 -8.95 -3.83 8.95zm-637.79 44.73l-3.9 0 0 -5.94 -3.51 -3.99 -6.68 9.93 -4.73 0 8.82 -12.84 -8.37 -9.52 4.69 0 9.78 11.63 0 -11.63 3.9 0 0 11.63 9.78 -11.63 4.7 0 -8.41 9.52 8.85 12.84 -4.73 0 -6.68 -9.93 -3.51 3.99 0 5.94zm16.36 0l9.84 -22.52 3.65 0 9.84 22.52 -4.16 0 -2.27 -5.4 -10.57 0 -2.3 5.4 -4.03 0zm7.77 -8.88l7.7 0 -3.87 -8.95 -3.83 8.95zm19.39 8.88l0 -22.36 3.9 0 0 18.85 8.79 0 0 -18.85 3.93 0 0 18.85 8.79 0 0 -18.85 3.89 0 0 22.36 -29.3 0zm40.55 0l0 -18.72 -7.09 0 0 -3.64 18.15 0 0 3.64 -7.09 0 0 18.72 -3.97 0zm13.3 0l9.84 -22.52 3.64 0 9.84 22.52 -4.15 0 -2.27 -5.4 -10.58 0 -2.3 5.4 -4.02 0zm7.76 -8.88l7.7 0 -3.86 -8.95 -3.84 8.95zm19.4 8.88l0 -22.36 8.82 0c2.6,0 4.66,0.68 6.2,2.04 1.53,1.36 2.3,3.2 2.3,5.5 0,2.4 -0.85,4.28 -2.54,5.62 -1.7,1.34 -3.83,2.01 -6.41,2.01l-4.44 0 0 7.19 -3.93 0zm3.93 -10.73l4.57 0c1.47,0 2.64,-0.38 3.51,-1.12 0.88,-0.75 1.31,-1.73 1.31,-2.94 0,-1.28 -0.43,-2.27 -1.29,-2.96 -0.86,-0.69 -2.04,-1.04 -3.53,-1.04l-4.57 0 0 8.06zm37.38 11.12c-3.23,0 -5.94,-1.12 -8.11,-3.34 -2.17,-2.23 -3.26,-4.97 -3.26,-8.23 0,-3.24 1.09,-5.98 3.26,-8.21 2.17,-2.24 4.93,-3.36 8.28,-3.36 1.93,0 3.58,0.3 4.93,0.9 1.35,0.59 2.63,1.46 3.82,2.58l-2.52 2.91c-2.01,-1.85 -4.09,-2.78 -6.27,-2.78 -2.13,0 -3.89,0.77 -5.29,2.3 -1.39,1.54 -2.09,3.42 -2.09,5.66 0,2.22 0.7,4.09 2.11,5.64 1.41,1.54 3.16,2.32 5.27,2.32 1.28,0 2.41,-0.24 3.39,-0.72 0.98,-0.48 1.99,-1.21 3.04,-2.19l2.52 2.55c-1.26,1.32 -2.59,2.32 -3.99,2.98 -1.41,0.66 -3.1,0.99 -5.09,0.99zm11.29 -0.39l9.84 -22.52 3.64 0 9.84 22.52 -4.15 0 -2.27 -5.4 -10.58 0 -2.3 5.4 -4.02 0zm7.76 -8.88l7.7 0 -3.86 -8.95 -3.84 8.95zm17.67 8.88l6.11 -8.4c-1.65,-0.45 -2.95,-1.25 -3.9,-2.41 -0.96,-1.16 -1.44,-2.64 -1.44,-4.43 0,-2.17 0.74,-3.9 2.23,-5.19 1.5,-1.29 3.53,-1.93 6.11,-1.93l9.94 0 0 22.36 -3.9 0 0 -7.73 -4.96 0 -5.56 7.73 -4.63 0zm9.36 -11.15l5.79 0 0 -7.67 -5.72 0c-1.47,0 -2.62,0.34 -3.45,1.01 -0.83,0.67 -1.25,1.61 -1.25,2.83 0,1.17 0.42,2.1 1.26,2.79 0.84,0.69 1.97,1.04 3.37,1.04zm25.82 11.54c-3.24,0 -5.94,-1.12 -8.11,-3.34 -2.18,-2.23 -3.26,-4.97 -3.26,-8.23 0,-3.24 1.08,-5.98 3.26,-8.21 2.17,-2.24 4.93,-3.36 8.27,-3.36 1.94,0 3.59,0.3 4.94,0.9 1.35,0.59 2.63,1.46 3.82,2.58l-2.53 2.91c-2,-1.85 -4.09,-2.78 -6.26,-2.78 -2.13,0 -3.89,0.77 -5.29,2.3 -1.39,1.54 -2.09,3.42 -2.09,5.66 0,2.22 0.7,4.09 2.11,5.64 1.4,1.54 3.16,2.32 5.27,2.32 1.28,0 2.41,-0.24 3.39,-0.72 0.98,-0.48 1.99,-1.21 3.03,-2.19l2.53 2.55c-1.26,1.32 -2.59,2.32 -4,2.98 -1.4,0.66 -3.1,0.99 -5.08,0.99zm11.28 -0.39l9.85 -22.52 3.64 0 9.84 22.52 -4.15 0 -2.27 -5.4 -10.58 0 -2.3 5.4 -4.03 0zm7.77 -8.88l7.7 0 -3.87 -8.95 -3.83 8.95zm24.89 8.88l0 -18.72 -7.09 0 0 -3.64 18.15 0 0 3.64 -7.1 0 0 18.72 -3.96 0zm15.21 0l0 -22.36 3.9 0 0 8.05 5.15 0c2.55,0 4.59,0.61 6.11,1.84 1.53,1.22 2.29,2.94 2.29,5.16 0,2.25 -0.76,4.04 -2.27,5.35 -1.51,1.31 -3.57,1.96 -6.17,1.96l-9.01 0zm3.9 -3.51l5.05 0c1.47,0 2.6,-0.33 3.4,-0.98 0.8,-0.65 1.2,-1.6 1.2,-2.86 0,-1.15 -0.4,-2.03 -1.21,-2.63 -0.81,-0.61 -1.96,-0.91 -3.45,-0.91l-4.99 0 0 7.38zm16.2 3.51l0 -22.36 3.9 0 0 22.36 -3.9 0zm19.24 0l0 -22.36 4.18 0 6.81 10.57 6.81 -10.57 4.18 0 0 22.36 -3.93 0 0 -16.04 -7.06 10.55 -0.13 0 -7 -10.48 0 15.97 -3.86 0zm27.74 0l0 -22.36 3.86 0 0 16.32 11.31 -16.32 3.68 0 0 22.36 -3.87 0 0 -16.29 -11.28 16.29 -3.7 0zm24.63 0l0 -22.36 3.93 0 0 9.29 10.68 0 0 -9.29 3.93 0 0 22.36 -3.93 0 0 -9.42 -10.68 0 0 9.42 -3.93 0zm24.29 0l0 -22.36 3.86 0 0 16.32 11.32 -16.32 3.67 0 0 22.36 -3.86 0 0 -16.29 -11.28 16.29 -3.71 0zm35.02 0.39c-3.24,0 -5.94,-1.12 -8.12,-3.34 -2.17,-2.23 -3.25,-4.97 -3.25,-8.23 0,-3.24 1.08,-5.98 3.25,-8.21 2.18,-2.24 4.94,-3.36 8.28,-3.36 1.94,0 3.58,0.3 4.94,0.9 1.35,0.59 2.62,1.46 3.82,2.58l-2.53 2.91c-2,-1.85 -4.09,-2.78 -6.26,-2.78 -2.13,0 -3.89,0.77 -5.29,2.3 -1.39,1.54 -2.09,3.42 -2.09,5.66 0,2.22 0.7,4.09 2.11,5.64 1.4,1.54 3.16,2.32 5.27,2.32 1.28,0 2.41,-0.24 3.39,-0.72 0.98,-0.48 1.99,-1.21 3.03,-2.19l2.53 2.55c-1.26,1.32 -2.59,2.32 -4,2.98 -1.4,0.66 -3.1,0.99 -5.08,0.99zm18.69 -0.39l0 -18.72 -7.09 0 0 -3.64 18.15 0 0 3.64 -7.09 0 0 18.72 -3.97 0zm15.22 0l0 -22.36 8.82 0c2.59,0 4.66,0.68 6.19,2.04 1.54,1.36 2.3,3.2 2.3,5.5 0,2.4 -0.84,4.28 -2.54,5.62 -1.69,1.34 -3.82,2.01 -6.4,2.01l-4.44 0 0 7.19 -3.93 0zm3.93 -10.73l4.57 0c1.47,0 2.64,-0.38 3.51,-1.12 0.87,-0.75 1.31,-1.73 1.31,-2.94 0,-1.28 -0.43,-2.27 -1.29,-2.96 -0.87,-0.69 -2.04,-1.04 -3.53,-1.04l-4.57 0 0 8.06zm17.41 10.99c-0.92,0 -1.82,-0.12 -2.71,-0.35l0.38 -3.23c0.38,0.13 0.81,0.19 1.28,0.19 0.51,0 0.95,-0.08 1.32,-0.24 0.38,-0.16 0.77,-0.54 1.18,-1.13 0.42,-0.6 0.75,-1.41 1,-2.45 0.24,-1.03 0.45,-2.47 0.62,-4.33 0.17,-1.85 0.25,-4.08 0.25,-6.68l0 -4.4 15.34 0 0 22.36 -3.93 0 0 -18.82 -7.73 0 0 2.02c0,3.47 -0.15,6.35 -0.45,8.64 -0.3,2.29 -0.77,4.04 -1.4,5.24 -0.64,1.2 -1.36,2.03 -2.16,2.49 -0.8,0.46 -1.8,0.69 -2.99,0.69zm24.45 -0.26l0 -22.36 3.86 0 0 16.32 11.32 -16.32 3.67 0 0 22.36 -3.87 0 0 -16.29 -11.28 16.29 -3.7 0zm24.63 0l0 -22.36 15.05 0 0 3.54 -11.15 0 0 18.82 -3.9 0zm18.99 0l0 -22.36 3.86 0 0 16.32 11.31 -16.32 3.68 0 0 22.36 -3.87 0 0 -16.29 -11.28 16.29 -3.7 0z"/>
 </g>
</svg>
