<svg width="18" height="12" viewBox="0 0 18 12" fill="none" xmlns="http://www.w3.org/2000/svg">
<path fill-rule="evenodd" clip-rule="evenodd" d="M6.1875 6C6.1875 4.4467 7.4467 3.1875 9 3.1875C10.5533 3.1875 11.8125 4.4467 11.8125 6C11.8125 7.5533 10.5533 8.8125 9 8.8125C7.4467 8.8125 6.1875 7.5533 6.1875 6ZM9 4.3125C8.06802 4.3125 7.3125 5.06802 7.3125 6C7.3125 6.93198 8.06802 7.6875 9 7.6875C9.93198 7.6875 10.6875 6.93198 10.6875 6C10.6875 5.06802 9.93198 4.3125 9 4.3125Z" fill="#1C3467"/>
<path fill-rule="evenodd" clip-rule="evenodd" d="M3.24257 4.98477C2.92823 5.43771 2.8125 5.79202 2.8125 6C2.8125 6.20798 2.92823 6.56229 3.24257 7.01523C3.54643 7.45308 3.99808 7.92771 4.5695 8.36627C5.71484 9.24531 7.28509 9.9375 9 9.9375C10.7149 9.9375 12.2852 9.24531 13.4305 8.36627C14.0019 7.92771 14.4536 7.45308 14.7574 7.01523C15.0718 6.56229 15.1875 6.20798 15.1875 6C15.1875 5.79202 15.0718 5.43771 14.7574 4.98477C14.4536 4.54692 14.0019 4.07229 13.4305 3.63373C12.2852 2.75469 10.7149 2.0625 9 2.0625C7.28509 2.0625 5.71484 2.75469 4.5695 3.63373C3.99808 4.07229 3.54643 4.54692 3.24257 4.98477ZM3.88455 2.74127C5.18224 1.74531 6.98699 0.9375 9 0.9375C11.013 0.9375 12.8178 1.74531 14.1154 2.74127C14.7655 3.24021 15.3024 3.79683 15.6817 4.34336C16.0505 4.87479 16.3125 5.45798 16.3125 6C16.3125 6.54202 16.0505 7.12521 15.6817 7.65664C15.3024 8.20317 14.7655 8.75979 14.1154 9.25873C12.8178 10.2547 11.013 11.0625 9 11.0625C6.98699 11.0625 5.18224 10.2547 3.88455 9.25873C3.23447 8.75979 2.69761 8.20317 2.31833 7.65664C1.94953 7.12521 1.6875 6.54202 1.6875 6C1.6875 5.45798 1.94953 4.87479 2.31833 4.34336C2.69761 3.79683 3.23447 3.24021 3.88455 2.74127Z" fill="#1C3467"/>
</svg>
