<svg id="eRUMn2oYeT31" xmlns="http://www.w3.org/2000/svg" xmlns:xlink="http://www.w3.org/1999/xlink" viewBox="0 0 2186.12 423.32" shape-rendering="geometricPrecision" text-rendering="geometricPrecision"><g clip-rule="evenodd"><path d="M345.88,362.84c-35.86,32.03-83.06,51.67-134.22,51.67s-95.08-18.74-130.57-49.22c43.75-8.93,92.05-13.5,138.85-13.5s86.04,3.8,125.94,11.05ZM211.66,8.82c112.03,0,202.85,90.81,202.85,202.84s-90.82,202.85-202.85,202.85-202.84-90.82-202.84-202.85s90.81-202.84,202.84-202.84ZM325.51,43.76c-68.27,46.38-159.43,46.38-227.7,0C130.27,21.71,169.46,8.82,211.66,8.82s81.39,12.89,113.85,34.94Zm86.45,166.27l-.01,1.18h-147.51c-28.68,0-52.13,23.46-52.13,52.14v88.09l-1.78-.01v-88.08c0-28.68-23.46-52.14-52.14-52.14h-149.28l-.01-1.18h149.29c28.68,0,52.14-23.46,52.14-52.14v-79.34h1.78v79.34c0,28.67,23.45,52.14,52.13,52.14h147.52Z" clip-rule="evenodd" fill="none" fill-rule="evenodd" stroke="#247abf" stroke-width="17.63" stroke-miterlimit="22.9256"/><path d="M525.92,149.88v-55.45h9.75v27.88l26.37-27.88h11.96l-23.05,23.85l24.08,31.6h-11.8L544.3,124.93l-8.63,8.87v16.08h-9.75Zm57.43,0v-55.45h9.66v19.96h12.75c6.34,0,11.4,1.52,15.17,4.56c3.78,3.04,5.67,7.3,5.67,12.79c0,5.6-1.88,10.02-5.63,13.27s-8.84,4.87-15.28,4.87h-22.34Zm9.66-8.71h12.52c3.64,0,6.45-.81,8.43-2.42s2.97-3.97,2.97-7.09c0-2.85-1-5.03-3.01-6.53-2-1.51-4.85-2.26-8.55-2.26h-12.36v18.3Zm40.16,8.71v-55.45h9.66v55.45h-9.66Zm23.92,0v-55.45h21.86c6.45,0,11.57,1.69,15.37,5.07s5.7,7.93,5.7,13.63c0,5.96-2.1,10.61-6.29,13.94-4.2,3.32-9.5,4.99-15.89,4.99h-11.01v17.82h-9.74Zm9.74-26.61h11.33c3.64,0,6.55-.93,8.71-2.78c2.17-1.84,3.25-4.27,3.25-7.28c0-3.17-1.07-5.61-3.21-7.33s-5.05-2.58-8.75-2.58h-11.33v19.97ZM710,149.88v-55.45h37.31v8.8h-27.64v46.65h-9.67Zm47.05,0v-55.45h9.67v19.96h12.75c6.33,0,11.39,1.52,15.17,4.56c3.77,3.04,5.66,7.3,5.66,12.79c0,5.6-1.88,10.02-5.63,13.27s-8.84,4.87-15.28,4.87h-22.34Zm9.67-8.71h12.51c3.64,0,6.45-.81,8.44-2.42c1.98-1.61,2.96-3.97,2.96-7.09c0-2.85-1-5.03-3-6.53-2.01-1.51-4.86-2.26-8.56-2.26h-12.35v18.3Zm40.15,8.71v-55.45h9.67v55.45h-9.67Zm42.77-56.4c5.71,0,10.38,1.4,14.02,4.2c3.65,2.8,5.47,6.36,5.47,10.7c0,5.96-3.14,10.27-9.42,12.91c3.32,1,5.96,2.61,7.92,4.83c1.95,2.21,2.93,5.04,2.93,8.47c0,4.7-1.88,8.58-5.63,11.65-3.75,3.06-8.66,4.59-14.73,4.59-5.23,0-9.73-.75-13.51-2.26-3.77-1.5-7.27-3.79-10.49-6.85l5.31-6.73c5.17,4.91,11.32,7.36,18.45,7.36c3.06,0,5.64-.75,7.72-2.25c2.09-1.51,3.13-3.53,3.13-6.06c0-2.75-1.16-4.78-3.48-6.1s-5.39-1.98-9.19-1.98h-6.26v-8.08h6.18c3.59,0,6.39-.7,8.4-2.1c2-1.4,3.01-3.39,3.01-5.98c0-2.32-.97-4.2-2.9-5.62-1.92-1.43-4.44-2.14-7.56-2.14-6.07,0-11.25,2.06-15.52,6.18l-5.23-6.34c5.86-5.6,12.99-8.4,21.38-8.4Zm56.08,56.4v-55.45h21.87c6.44,0,11.56,1.69,15.36,5.07s5.7,7.93,5.7,13.63c0,5.96-2.09,10.61-6.29,13.94-4.2,3.32-9.49,4.99-15.88,4.99h-11.01v17.82h-9.75Zm9.75-26.61h11.32c3.65,0,6.55-.93,8.72-2.78c2.16-1.84,3.24-4.27,3.24-7.28c0-3.17-1.07-5.61-3.21-7.33-2.13-1.72-5.05-2.58-8.75-2.58h-11.32v19.97Zm43.16,26.61v-55.45h41.11v8.72h-31.36v14.41h27.8v8.72h-27.8v14.89h31.76v8.71h-41.51Zm78.81.95c-8.02,0-14.73-2.76-20.11-8.28-5.39-5.52-8.08-12.31-8.08-20.39c0-8.03,2.69-14.82,8.08-20.36c5.38-5.54,12.22-8.32,20.51-8.32c4.81,0,8.88.74,12.24,2.22c3.35,1.48,6.51,3.62,9.46,6.42l-6.25,7.21c-4.97-4.6-10.14-6.9-15.53-6.9-5.28,0-9.65,1.91-13.11,5.71s-5.18,8.47-5.18,14.02c0,5.49,1.74,10.15,5.22,13.98c3.49,3.82,7.84,5.74,13.07,5.74c3.17,0,5.97-.59,8.4-1.78s4.94-3,7.52-5.43l6.26,6.34c-3.12,3.27-6.42,5.73-9.9,7.37-3.49,1.63-7.68,2.45-12.6,2.45Zm32.72-.95v-55.45h45.23v55.45h-9.75v-46.65h-25.74v46.65h-9.74Zm69.07.87c-3.81,0-7.42-.92-10.85-2.77l3.72-7.29c2.06,1.16,4.33,1.74,6.81,1.74c3.33,0,6.23-2,8.71-6.02l-23.13-41.98h10.93l17.27,32.24l15.21-32.24h10.53l-21.62,43.33c-4.28,8.66-10.14,12.99-17.58,12.99Zm48.39-.87v-55.45h41.35v8.8h-31.68v12.75h15.44c6.18,0,11.08,1.48,14.69,4.43c3.62,2.96,5.43,7.08,5.43,12.36c0,5.49-1.82,9.72-5.46,12.67-3.65,2.96-8.69,4.44-15.13,4.44h-24.64Zm9.67-8.71h12.83c4.43,0,7.71-.65,9.82-1.94c2.11-1.3,3.17-3.58,3.17-6.86c0-5.43-3.75-8.15-11.25-8.15h-14.57v16.95Zm46.57,9.34c-2.27,0-4.52-.29-6.73-.87l.95-8c.95.32,2,.48,3.17.48c1.26,0,2.36-.2,3.28-.6.93-.39,1.9-1.33,2.93-2.81s1.85-3.5,2.46-6.06s1.12-6.14,1.54-10.73c.43-4.6.64-10.11.64-16.56v-10.93h38.02v55.45h-9.75v-46.65h-19.16v4.99c0,8.6-.37,15.75-1.11,21.42-.74,5.68-1.9,10.01-3.49,12.99-1.58,2.99-3.36,5.05-5.34,6.18s-4.45,1.7-7.41,1.7Zm60.59-.63v-55.45h9.59v40.48l28.04-40.48h9.11v55.45h-9.59v-40.4l-27.96,40.4h-9.19Zm61.07,0v-55.45h9.75v27.88l26.37-27.88h11.96l-23.05,23.85l24.08,31.6h-11.8l-18.93-24.95-8.63,8.87v16.08h-9.75Zm52.68,0l24.39-55.84h9.03l24.4,55.84h-10.3l-5.62-13.39h-26.22l-5.7,13.39h-9.98Zm19.24-22.02h19.09l-9.58-22.18-9.51,22.18Zm73.82,22.97c-8.02,0-14.73-2.76-20.11-8.28-5.39-5.52-8.08-12.31-8.08-20.39c0-8.03,2.69-14.82,8.08-20.36c5.38-5.54,12.22-8.32,20.51-8.32c4.81,0,8.88.74,12.24,2.22c3.35,1.48,6.51,3.62,9.46,6.42l-6.25,7.21c-4.97-4.6-10.14-6.9-15.53-6.9-5.28,0-9.65,1.91-13.11,5.71s-5.18,8.47-5.18,14.02c0,5.49,1.74,10.15,5.22,13.98c3.49,3.82,7.84,5.74,13.07,5.74c3.17,0,5.97-.59,8.4-1.78s4.94-3,7.52-5.43l6.26,6.34c-3.12,3.27-6.42,5.73-9.9,7.37-3.49,1.63-7.68,2.45-12.6,2.45Zm32.72-.95v-55.45h9.66v19.96h12.75c6.34,0,11.4,1.52,15.17,4.56c3.78,3.04,5.67,7.3,5.67,12.79c0,5.6-1.88,10.02-5.63,13.27s-8.84,4.87-15.29,4.87h-22.33Zm9.66-8.71h12.52c3.64,0,6.45-.81,8.43-2.42s2.97-3.97,2.97-7.09c0-2.85-1-5.03-3.01-6.53-2-1.51-4.86-2.26-8.55-2.26h-12.36v18.3Zm40.16,8.71v-55.45h9.66v55.45h-9.66Zm23.92,0v-55.45h9.74v23.05h26.46v-23.05h9.74v55.45h-9.74v-23.37h-26.46v23.37h-9.74Zm60.2,0v-55.45h9.66v19.96h12.75c6.34,0,11.4,1.52,15.17,4.56c3.78,3.04,5.67,7.3,5.67,12.79c0,5.6-1.88,10.02-5.63,13.27s-8.84,4.87-15.29,4.87h-22.33Zm9.66-8.71h12.52c3.64,0,6.45-.81,8.43-2.42s2.97-3.97,2.97-7.09c0-2.85-1-5.03-3.01-6.53-2.01-1.51-4.86-2.26-8.55-2.26h-12.36v18.3Zm40.16,8.71v-55.45h9.66v55.45h-9.66Zm23.92,0v-55.45h9.74v23.05h26.46v-23.05h9.74v55.45h-9.74v-23.37h-26.46v23.37h-9.74ZM525.92,238.75v-55.44h10.38l16.87,26.21l16.87-26.21h10.38v55.44h-9.74v-39.76l-17.51,26.14h-.31l-17.35-25.98v39.6h-9.59Zm480.64,11.49l-1.03-4.04c4.54-.9,6.81-3.09,6.81-6.58c0-.1-.01-.25-.04-.43-.03-.19-.04-.33-.04-.44h-4.04v-10.85h10.53v9.19c0,4.27-1,7.46-3.01,9.54-2,2.09-5.06,3.29-9.18,3.61Zm555.96,0l-1.03-4.04c4.54-.9,6.81-3.09,6.81-6.58c0-.1-.02-.25-.04-.43-.03-.19-.04-.33-.04-.44h-4.04v-10.85h10.53v9.19c0,4.27-1,7.46-3.01,9.54-2,2.09-5.07,3.29-9.18,3.61Zm-972.6-11.49l24.4-55.84h9.03l24.4,55.84h-10.3l-5.62-13.38h-26.22l-5.71,13.38h-9.98Zm19.25-22.02h19.09l-9.58-22.18-9.51,22.18Zm41.74,33.9v-20.59h5.39c4.7-9.3,7.05-22.26,7.05-38.89v-7.84h38.65v46.73h6.89l-1.34,20.59h-8.08v-11.88h-39.05l-.95,11.88h-8.56Zm15.77-20.59h25.58v-37.94h-19.56v6.34c0,12.93-2.01,23.47-6.02,31.6Zm46.17,8.71l24.4-55.84h9.03l24.4,55.84h-10.3l-5.62-13.38h-26.22l-5.7,13.38h-9.99Zm19.25-22.02h19.09l-9.58-22.18-9.51,22.18Zm48.08,22.02v-55.44h9.74v23.05h26.46v-23.05h9.74v55.44h-9.74v-23.36h-26.46v23.36h-9.74Zm60.2,0v-55.44h9.58v40.47L878,183.31h9.11v55.44h-9.58v-40.4l-27.96,40.4h-9.19Zm56.79,0l15.13-20.83c-4.07-1.11-7.29-3.1-9.66-5.98-2.38-2.88-3.57-6.54-3.57-10.97c0-5.39,1.85-9.68,5.55-12.87c3.69-3.2,8.74-4.79,15.13-4.79h24.63v55.44h-9.66v-19.17h-12.28l-13.78,19.17h-11.49Zm23.21-27.64h14.34v-19.01h-14.18c-3.65,0-6.5.83-8.56,2.49-2.06,1.67-3.09,4-3.09,7.01c0,2.91,1.05,5.22,3.13,6.93c2.09,1.72,4.87,2.58,8.36,2.58Zm51.88,27.64v-46.41h-17.59v-9.03h44.99v9.03h-17.58v46.41h-9.82Zm82.77,0v-55.44h10.38l16.87,26.21l16.87-26.21h10.38v55.44h-9.75v-39.76l-17.5,26.14h-.32l-17.34-25.98v39.6h-9.59Zm64,0l24.4-55.84h9.03l24.39,55.84h-10.29l-5.63-13.38h-26.21l-5.71,13.38h-9.98Zm19.25-22.02h19.09l-9.59-22.18-9.5,22.18Zm43.33,22.02L1206,182.91h9.03l24.4,55.84h-10.3l-5.62-13.38h-26.22l-5.7,13.38h-9.98Zm19.24-22.02h19.09l-9.58-22.18-9.51,22.18Zm48.08,22.66c-2.27,0-4.51-.3-6.73-.88l.95-8c.95.32,2.01.48,3.17.48c1.27,0,2.36-.2,3.29-.6.92-.39,1.9-1.33,2.93-2.81s1.84-3.5,2.45-6.06s1.12-6.13,1.55-10.73c.42-4.59.63-10.11.63-16.55v-10.93h38.02v55.44h-9.74v-46.65h-19.17v4.99c0,8.6-.37,15.75-1.11,21.42-.74,5.68-1.9,10.01-3.48,12.99-1.59,2.99-3.37,5.05-5.35,6.18-1.98,1.14-4.45,1.71-7.41,1.71Zm60.6-.64v-55.44h9.66v19.96h12.75c6.34,0,11.39,1.51,15.17,4.55s5.66,7.3,5.66,12.79c0,5.6-1.87,10.02-5.62,13.27s-8.84,4.87-15.29,4.87h-22.33Zm9.66-8.71h12.51c3.65,0,6.46-.81,8.44-2.42s2.97-3.97,2.97-7.09c0-2.85-1-5.03-3.01-6.53-2.01-1.51-4.86-2.26-8.55-2.26h-12.36v18.3Zm40.16,8.71v-55.44h9.66v55.44h-9.66Zm23.92,0v-55.44h10.38l16.87,26.21l16.87-26.21h10.37v55.44h-9.74v-39.76l-17.5,26.14h-.32l-17.35-25.98v39.6h-9.58Zm64,0l24.4-55.84h9.02l24.4,55.84h-10.3l-5.62-13.38h-26.22l-5.7,13.38h-9.98Zm19.25-22.02h19.08l-9.58-22.18-9.5,22.18Zm61.7,22.02v-46.41h-17.59v-9.03h44.99v9.03h-17.58v46.41h-9.82Zm108.51.95c-8.02,0-14.73-2.76-20.11-8.28-5.39-5.51-8.08-12.31-8.08-20.39c0-8.03,2.69-14.81,8.08-20.36c5.38-5.54,12.22-8.31,20.51-8.31c4.81,0,8.88.73,12.24,2.21c3.35,1.48,6.51,3.62,9.46,6.42l-6.25,7.21c-4.97-4.6-10.14-6.89-15.53-6.89-5.28,0-9.65,1.9-13.11,5.7s-5.19,8.47-5.19,14.02c0,5.49,1.75,10.15,5.23,13.98c3.49,3.83,7.84,5.74,13.07,5.74c3.17,0,5.97-.59,8.4-1.78s4.93-3,7.52-5.43l6.26,6.34c-3.12,3.27-6.42,5.73-9.9,7.37-3.49,1.63-7.68,2.45-12.6,2.45Zm32.72-.95v-55.44h45.22v55.44h-9.74v-46.65h-25.74v46.65h-9.74Zm106.77-7.44c-5.49,5.59-12.44,8.39-20.83,8.39-8.4,0-15.32-2.77-20.75-8.32-5.44-5.54-8.16-12.33-8.16-20.35c0-7.92,2.74-14.68,8.23-20.28c5.5-5.6,12.44-8.39,20.84-8.39c8.39,0,15.31,2.77,20.75,8.31c5.44,5.55,8.16,12.33,8.16,20.36c0,7.92-2.75,14.68-8.24,20.28Zm-34.18-6.3c3.57,3.83,8.07,5.74,13.51,5.74s9.91-1.9,13.42-5.7s5.27-8.48,5.27-14.02c0-5.49-1.78-10.15-5.35-13.98-3.56-3.83-8.06-5.74-13.5-5.74s-9.92,1.9-13.43,5.7-5.26,8.47-5.26,14.02c0,5.49,1.78,10.15,5.34,13.98Zm54.22,13.74v-55.44h21.86c6.44,0,11.56,1.69,15.36,5.06c3.81,3.38,5.71,7.93,5.71,13.63c0,5.97-2.1,10.61-6.3,13.94s-9.49,4.99-15.88,4.99h-11.01v17.82h-9.74Zm9.74-26.61h11.33c3.64,0,6.55-.93,8.71-2.78c2.16-1.84,3.25-4.27,3.25-7.28c0-3.17-1.07-5.61-3.21-7.33-2.14-1.71-5.06-2.57-8.75-2.57h-11.33v19.96Zm56.79,26.61v-46.41h-17.58v-9.03h44.99v9.03h-17.59v46.41h-9.82Zm102.18,0h-9.66v-14.73l-8.72-9.9-16.55,24.63h-11.72l21.86-31.84-20.75-23.6h11.64l24.24,28.83v-28.83h9.66v28.83l24.24-28.83h11.64l-20.83,23.6l21.94,31.84h-11.72l-16.56-24.63-8.71,9.9v14.73Zm40.56,0l24.39-55.84h9.03l24.4,55.84h-10.3l-5.62-13.38h-26.22l-5.7,13.38h-9.98Zm19.24-22.02h19.09l-9.58-22.18-9.51,22.18Zm48.08,22.02v-55.44h9.74v23.05h26.46v-23.05h9.74v55.44h-9.74v-23.36h-26.46v23.36h-9.74Zm55.45,0l24.39-55.84h9.03l24.4,55.84h-10.3l-5.62-13.38h-26.22l-5.7,13.38h-9.98Zm19.24-22.02h19.09l-9.58-22.18-9.51,22.18ZM566.64,327.62h-9.66v-14.73l-8.72-9.9-16.55,24.63h-11.73l21.87-31.84-20.76-23.6h11.65l24.24,28.83v-28.83h9.66v28.83l24.24-28.83h11.64l-20.83,23.6l21.94,31.84h-11.73l-16.55-24.63-8.71,9.9v14.73Zm40.55,0l24.4-55.84h9.03l24.39,55.84h-10.29l-5.63-13.38h-26.21l-5.71,13.38h-9.98Zm19.25-22.02h19.09l-9.58-22.18-9.51,22.18Zm48.08,22.02v-55.44h9.66v46.73h21.78v-46.73h9.75v46.73h21.78v-46.73h9.66v55.44h-72.63Zm100.51,0v-46.41h-17.58v-9.03h44.99v9.03h-17.58v46.41h-9.83Zm32.95,0l24.4-55.84h9.03l24.39,55.84h-10.29l-5.63-13.38h-26.21l-5.71,13.38h-9.98Zm19.25-22.02h19.09l-9.58-22.18-9.51,22.18Zm48.08,22.02v-55.44h21.86c6.44,0,11.56,1.69,15.37,5.07c3.8,3.38,5.7,7.92,5.7,13.62c0,5.97-2.1,10.61-6.3,13.94s-9.49,4.99-15.88,4.99h-11.01v17.82h-9.74Zm9.74-26.61h11.33c3.64,0,6.55-.93,8.71-2.77c2.17-1.85,3.25-4.28,3.25-7.29c0-3.17-1.07-5.61-3.21-7.33-2.14-1.71-5.05-2.57-8.75-2.57h-11.33v19.96Zm92.67,27.56c-8.02,0-14.73-2.76-20.11-8.27-5.39-5.52-8.08-12.32-8.08-20.4c0-8.03,2.69-14.81,8.08-20.36c5.38-5.54,12.22-8.31,20.51-8.31c4.81,0,8.88.74,12.24,2.21c3.35,1.48,6.51,3.62,9.46,6.42l-6.25,7.21c-4.97-4.6-10.14-6.89-15.53-6.89-5.28,0-9.65,1.9-13.11,5.7s-5.18,8.48-5.18,14.02c0,5.49,1.74,10.15,5.22,13.98c3.49,3.83,7.84,5.74,13.07,5.74c3.17,0,5.97-.59,8.4-1.78s4.94-3,7.52-5.43l6.26,6.34c-3.12,3.27-6.42,5.73-9.9,7.37-3.49,1.64-7.68,2.45-12.6,2.45Zm27.97-.95l24.39-55.84h9.03l24.4,55.84h-10.3l-5.62-13.38h-26.22l-5.7,13.38h-9.98Zm19.24-22.02h19.09l-9.58-22.18-9.51,22.18Zm43.8,22.02l15.13-20.83c-4.06-1.11-7.28-3.1-9.66-5.98s-3.56-6.53-3.56-10.97c0-5.38,1.84-9.68,5.54-12.87s8.74-4.79,15.13-4.79h24.63v55.44h-9.66v-19.17h-12.28l-13.78,19.17h-11.49Zm23.21-27.64h14.34v-19.01h-14.18c-3.64,0-6.49.83-8.55,2.49-2.06,1.67-3.09,4-3.09,7.01c0,2.91,1.04,5.22,3.12,6.93c2.09,1.72,4.88,2.58,8.36,2.58Zm64,28.59c-8.03,0-14.73-2.76-20.12-8.27-5.38-5.52-8.08-12.32-8.08-20.4c0-8.03,2.7-14.81,8.08-20.36c5.39-5.54,12.23-8.31,20.52-8.31c4.8,0,8.88.74,12.23,2.21c3.36,1.48,6.51,3.62,9.47,6.42l-6.26,7.21c-4.96-4.6-10.14-6.89-15.52-6.89-5.28,0-9.65,1.9-13.11,5.7s-5.19,8.48-5.19,14.02c0,5.49,1.74,10.15,5.23,13.98c3.48,3.83,7.84,5.74,13.07,5.74c3.17,0,5.97-.59,8.39-1.78c2.43-1.19,4.94-3,7.53-5.43l6.26,6.34c-3.12,3.27-6.42,5.73-9.91,7.37-3.48,1.64-7.68,2.45-12.59,2.45Zm27.96-.95l24.4-55.84h9.03l24.39,55.84h-10.29l-5.63-13.38h-26.22l-5.7,13.38h-9.98Zm19.25-22.02h19.09l-9.59-22.18-9.5,22.18Zm61.7,22.02v-46.41h-17.58v-9.03h44.99v9.03h-17.59v46.41h-9.82Zm37.7,0v-55.44h9.67v19.96h12.75c6.34,0,11.39,1.52,15.17,4.55c3.77,3.04,5.66,7.3,5.66,12.79c0,5.6-1.87,10.02-5.62,13.27s-8.85,4.87-15.29,4.87h-22.34Zm9.67-8.71h12.51c3.65,0,6.46-.81,8.44-2.42s2.97-3.97,2.97-7.09c0-2.85-1-5.03-3.01-6.53s-4.86-2.26-8.55-2.26h-12.36v18.3Zm40.16,8.71v-55.44h9.66v55.44h-9.66Zm47.68,0v-55.44h10.38l16.87,26.21l16.87-26.21h10.37v55.44h-9.74v-39.76L1427.31,314h-.32l-17.35-25.98v39.6h-9.58Zm68.75,0v-55.44h9.59v40.47l28.03-40.47h9.11v55.44h-9.58v-40.39L1478,327.62h-9.19Zm61.07,0v-55.44h9.74v23.05h26.46v-23.05h9.74v55.44h-9.74v-23.36h-26.46v23.36h-9.74Zm60.2,0v-55.44h9.58v40.47l28.04-40.47h9.11v55.44h-9.58v-40.39l-27.96,40.39h-9.19Zm86.81.95c-8.03,0-14.73-2.76-20.12-8.27-5.38-5.52-8.08-12.32-8.08-20.4c0-8.03,2.7-14.81,8.08-20.36c5.39-5.54,12.23-8.31,20.52-8.31c4.8,0,8.88.74,12.23,2.21c3.36,1.48,6.51,3.62,9.47,6.42l-6.26,7.21c-4.96-4.6-10.14-6.89-15.52-6.89-5.28,0-9.65,1.9-13.11,5.7s-5.19,8.48-5.19,14.02c0,5.49,1.74,10.15,5.23,13.98c3.48,3.83,7.84,5.74,13.07,5.74c3.17,0,5.97-.59,8.39-1.78c2.43-1.19,4.94-3,7.53-5.43l6.26,6.34c-3.12,3.27-6.42,5.73-9.91,7.37-3.48,1.64-7.68,2.45-12.59,2.45Zm46.34-.95v-46.41h-17.59v-9.03h44.99v9.03h-17.58v46.41h-9.82Zm37.7,0v-55.44h21.86c6.44,0,11.57,1.69,15.37,5.07s5.7,7.92,5.7,13.62c0,5.97-2.1,10.61-6.3,13.94-4.19,3.33-9.49,4.99-15.88,4.99h-11.01v17.82h-9.74Zm9.74-26.61h11.33c3.64,0,6.55-.93,8.71-2.77c2.17-1.85,3.25-4.28,3.25-7.29c0-3.17-1.07-5.61-3.21-7.33-2.14-1.71-5.05-2.57-8.75-2.57h-11.33v19.96Zm43.17,27.25c-2.27,0-4.51-.3-6.73-.88l.95-8c.95.32,2,.48,3.17.48c1.26,0,2.36-.2,3.28-.59.93-.4,1.91-1.34,2.93-2.82c1.03-1.47,1.85-3.49,2.46-6.05.61-2.57,1.12-6.14,1.54-10.74.43-4.59.64-10.11.64-16.55v-10.93h38.02v55.44h-9.75v-46.65h-19.16v4.99c0,8.61-.37,15.75-1.11,21.43-.74,5.67-1.9,10-3.49,12.99-1.58,2.98-3.36,5.04-5.34,6.17-1.98,1.14-4.45,1.71-7.41,1.71Zm60.59-.64v-55.44h9.59v40.47l28.04-40.47h9.11v55.44h-9.59v-40.39l-27.96,40.39h-9.19Zm61.07,0v-55.44h37.31v8.79h-27.64v46.65h-9.67Zm47.05,0v-55.44h9.59v40.47l28.04-40.47h9.11v55.44h-9.59v-40.39l-27.96,40.39h-9.19Z" clip-rule="evenodd" fill="#58595b"/></g></svg>
