<svg id="el2mb6p0yRB1" xmlns="http://www.w3.org/2000/svg" xmlns:xlink="http://www.w3.org/1999/xlink" viewBox="0 0 18 12" shape-rendering="geometricPrecision" text-rendering="geometricPrecision"><path d="M6.1875,6C6.1875,4.4467,7.4467,3.1875,9,3.1875s2.8125,1.2592,2.8125,2.8125-1.2592,2.8125-2.8125,2.8125-2.8125-1.2592-2.8125-2.8125ZM9,4.3125c-.93198,0-1.6875.75552-1.6875,1.6875s.75552,1.6875,1.6875,1.6875s1.6875-.75552,1.6875-1.6875-.75552-1.6875-1.6875-1.6875Z" clip-rule="evenodd" fill="#1c3467" fill-rule="evenodd"/><path d="M3.24257,4.98477C2.92823,5.43771,2.8125,5.79202,2.8125,6s.11573.56229.43007,1.01523c.30386.43785.75551.91248,1.32693,1.35104C5.71484,9.24531,7.28509,9.9375,9,9.9375s3.2852-.69219,4.4305-1.57123c.5714-.43856,1.0231-.91319,1.3269-1.35104.3144-.45294.4301-.80725.4301-1.01523s-.1157-.56229-.4301-1.01523c-.3038-.43785-.7555-.91248-1.3269-1.35104C12.2852,2.75469,10.7149,2.0625,9,2.0625s-3.28516.69219-4.4305,1.57123c-.57142.43856-1.02307.91319-1.32693,1.35104Zm.64198-2.2435C5.18224,1.74531,6.98699,0.9375,9,0.9375s3.8178.80781,5.1154,1.80377c.6501.49894,1.187,1.05556,1.5663,1.60209.3688.53143.6308,1.11462.6308,1.65664s-.262,1.12521-.6308,1.65664c-.3793.54653-.9162,1.10315-1.5663,1.60209C12.8178,10.2547,11.013,11.0625,9,11.0625s-3.81776-.8078-5.11545-1.80377c-.65008-.49894-1.18694-1.05556-1.56622-1.60209C1.94953,7.12521,1.6875,6.54202,1.6875,6s.26203-1.12521.63083-1.65664c.37928-.54653.91614-1.10315,1.56622-1.60209Z" clip-rule="evenodd" fill="#1c3467" fill-rule="evenodd"/></svg>
