<svg width="18" height="17" viewBox="0 0 18 17" fill="none" xmlns="http://www.w3.org/2000/svg">
<path d="M7.5 12.125H10.5" stroke="#1C3467" stroke-width="1.5" stroke-linecap="round" stroke-linejoin="round"/>
<path d="M1.5 12.125V4.625C1.5 1.625 2.25 0.875 5.25 0.875" stroke="#1C3467" stroke-width="1.5" stroke-linecap="round" stroke-linejoin="round"/>
<path d="M16.5 12.125V4.625C16.5 1.625 15.75 0.875 12.75 0.875" stroke="#1C3467" stroke-width="1.5" stroke-linecap="round" stroke-linejoin="round"/>
<path d="M7.5 10.9325V13.4C7.5 14.9 6.9 15.5 5.4 15.5H3.6C2.1 15.5 1.5 14.9 1.5 13.4V10.9325C1.5 9.43252 2.1 8.83252 3.6 8.83252H5.4C6.9 8.83252 7.5 9.43252 7.5 10.9325Z" stroke="#1C3467" stroke-width="1.5" stroke-linecap="round" stroke-linejoin="round"/>
<path d="M16.5 10.9325V13.4C16.5 14.9 15.9 15.5 14.4 15.5H12.6C11.1 15.5 10.5 14.9 10.5 13.4V10.9325C10.5 9.43252 11.1 8.83252 12.6 8.83252H14.4C15.9 8.83252 16.5 9.43252 16.5 10.9325Z" stroke="#1C3467" stroke-width="1.5" stroke-linecap="round" stroke-linejoin="round"/>
</svg>
